
<svg width="317px" height="129px" viewBox="0 0 317 129" version="1.1" xmlns="http://www.w3.org/2000/svg" xmlns:xlink="http://www.w3.org/1999/xlink">
    <g id="Page-1" stroke="none" stroke-width="1" fill="none" fill-rule="evenodd" fill-opacity="0.3">
        <g id="footer-signature" fill="#597263" fill-rule="nonzero">
            <path d="M240.154,52.646 C235.597,49.301 235.59,43.845 233.799,39.185 C232.009,34.525 230.191,29.786 228.56,25.07 C227.233,21.2343 228.135,18.1488 231.59,16.2381 C234.353,14.6561 237.387,13.3385 240.535,12.6079 C249.123,10.5327 250.498,16.3204 249.657,22.427 C249.386,24.489 248.992,25.162 251.666,25.132 C253.538,25.111 255.664,26.344 257.256,27.584 C260.762,30.218 261.345,34.491 262.484,38.302 C262.874,39.688 261.672,42.162 260.454,43.299 C256.169,47.465 251.613,51.367 244.98,51.335 C243.348,51.273 241.673,52.121 240.154,52.646 Z M236.451,32.363 C236.619,33.11 236.923,33.989 237.12,34.816 C237.51,36.202 238.167,37.585 238.182,38.922 C238.181,43.575 240.153,45.399 244.638,44.653 C246.239,44.368 247.899,44.509 249.31,43.932 C251.624,42.863 255.116,41.835 255.737,40.009 C257.601,34.533 251.066,28.83 247.119,29.837 C243.68,30.758 240.237,31.411 236.451,32.363 Z M235.468,28.229 C236.055,28.115 236.722,27.974 237.442,27.725 C238.988,27.28 240.561,26.915 242.052,26.31 C244.394,25.321 246.255,21.9037 245.589,19.7183 C244.756,17.0533 242.289,16.3857 240.183,17.0243 C237.678,17.8012 235.505,19.5371 233.221,20.9533 C232.849,21.1714 232.673,22.216 232.919,22.668 C233.662,24.559 234.538,26.314 235.468,28.229 Z" id="Shape"></path>
            <path d="M102.379,67.186 C99.605,72.62 97.302,77.085 96.612,82.334 C96.415,83.834 94.718,85.136 93.218,87.266 C89.291,82.897 85.635,78.793 81.899,74.717 C81.447,74.962 80.995,75.208 80.463,75.482 C81.454,80.418 81.859,85.468 83.489,90.183 C85.147,94.978 87.098,99.582 85.286,104.951 C82.484,103.057 81.326,99.968 80.752,96.498 C80.408,94.469 80.037,92.361 79.613,90.36 C78.631,86.226 77.781,81.957 76.479,77.933 C75.285,73.962 75.891,70.799 80.035,68.293 C83.919,71.244 88.153,74.433 91.201,76.779 C93.12,73.789 95.281,70.983 96.877,67.836 C98.606,64.554 102.055,62.109 105.137,62.743 C106.88,63.125 108.171,63.752 108.49,65.968 C108.695,67.597 110.717,69.045 110.735,70.65 C110.749,74.313 115.709,75.461 114.845,79.429 C114.771,79.991 115.342,80.867 115.855,81.316 C118.123,83.216 118.924,85.534 118.582,88.426 C118.536,89.068 119.212,89.729 119.273,90.424 C119.418,91.358 119.214,92.323 119.199,93.313 C117.994,93.192 116.765,93.26 115.585,92.952 C115.21,92.903 114.881,92.211 114.608,91.679 C111.751,84.972 108.947,78.158 106.011,71.478 C105.433,70.067 104.004,69.04 102.379,67.186 Z" id="Path"></path>
            <path d="M160.906,58.936 C166.207,61.845 165.059,66.805 165.83,71.102 C166.087,72.623 166.031,74.79 167.002,75.528 C169.322,77.321 168.965,78.876 167.84,81.054 C167.394,81.835 167.406,82.904 166.997,84.567 C165.832,83.27 164.781,82.56 164.342,81.548 C161.532,74.199 158.934,66.686 156.284,59.282 C155.344,56.565 154.617,53.684 153.437,51.05 C152.614,49.187 151.179,47.626 149.52,45.157 C149.398,43.768 150.741,41.961 152.908,42.017 C154.273,42.082 155.815,43.696 156.792,44.969 C157.797,46.321 158.217,48.055 158.93,49.598 C160.002,52.18 161.477,52.565 163.868,51.201 C167.615,49.1 171.498,47.131 175.463,45.401 C178.177,44.194 179.029,41.484 177.441,38.185 C176.428,36.031 176.582,35.441 179.444,33.109 C180.301,35.586 181.127,37.716 181.793,39.902 C182.432,42.007 182.99,44.14 183.629,46.246 C184.047,47.712 184.464,49.178 185.069,50.669 C186.39,53.97 187.603,57.219 189.056,60.385 C190.18,62.86 191.836,65.061 192.96,67.535 C193.233,68.067 192.345,69.896 192.077,69.899 C190.793,69.806 188.758,69.615 188.374,68.763 C185.745,63.23 183.328,57.535 180.99,51.811 C180.029,49.549 179.424,48.058 176.476,49.883 C172.04,52.58 167.359,54.825 162.76,57.31 C162.228,57.584 161.727,58.205 160.906,58.936 Z" id="Path"></path>
            <path d="M259.414,5.363 C265.611,2.3251 270.944,0.9282 276.556,0.5979 C280.512,0.3931 282.92,5.2868 281.151,9.7459 C279.878,13.0495 280.394,13.7657 283.95,13.6991 C290.475,13.6795 297.299,21.2514 295.659,27.635 C294.967,30.29 292.43,33.046 290.042,34.677 C284.841,38.266 278.924,37.717 274.275,33.33 C270.978,30.264 268.872,23.656 271.929,17.2302 C273.131,14.7564 274.011,12.1257 274.783,9.4428 C275.297,7.5651 274.667,6.2618 272.267,6.8235 C269.279,7.4988 266.239,8.2817 263.166,8.4498 C262.152,8.6217 260.981,6.7895 259.414,5.363 Z M278.187,14.8869 C277.354,16.8752 276.649,18.4609 276.053,20.0989 C274.075,24.988 275.051,28.588 279.064,31.137 C281.596,32.766 286.219,32.42 288.23,30.472 C290.505,28.254 291.086,25.279 288.942,22.442 C287.747,20.7969 285.568,19.6713 283.528,18.9454 C279.606,17.4383 279.502,17.6534 278.187,14.8869 Z" id="Shape"></path>
            <path d="M223.118,52.542 C221.326,54.862 219.721,57.207 217.953,59.339 C215.816,61.957 208.175,62.631 205.477,60.522 C204.371,59.652 203.345,58.754 202.214,58.072 C200.06,56.759 199.261,54.708 198.328,52.526 C196.571,48.481 194.042,44.792 194.151,40.191 C194.254,37.382 194.866,34.754 197.519,32.853 C199.456,31.467 200.876,29.365 202.622,27.688 C205.057,25.414 208.038,26.53 210.82,26.553 C214.323,26.594 215.469,28.613 216.332,31.626 C216.749,33.092 218.446,34.116 219.503,35.361 C219.715,35.198 219.954,35.115 220.167,34.952 C220.071,35.969 219.975,36.987 219.8,38.032 C221.413,38.816 223.906,39.296 221.366,41.785 C221.234,41.92 221.265,42.267 221.292,42.347 C222.924,44.736 222.311,47.363 222.234,49.985 C222.298,50.947 222.869,51.823 223.118,52.542 Z M204.642,36.116 C199.492,34.676 197.299,37.134 198.318,42.15 C199.365,47.246 201.42,51.636 205.682,54.904 C208.487,57.065 211.597,57.779 214.093,56.2 C217.066,54.188 219.548,48.945 218.424,46.471 C216.366,41.814 214.333,36.97 211.611,32.721 C210.631,31.181 207.659,30.867 205.643,29.954 C205.421,31.641 205.119,33.356 204.87,34.963 C204.793,35.258 204.716,35.553 204.642,36.116 Z" id="Shape"></path>
            <path d="M36.689,113.973 C38.407,114.542 39.615,114.93 40.635,115.293 C39.937,117.413 39.294,119.694 38.518,122.109 C35.829,120.802 34.224,123.147 32.42,124.397 C30.323,125.838 29.013,128.26 25.832,128.376 C21.502,128.531 17.546,128.736 14.111,125.271 C7.782,118.87 2.301,111.818 1.0768,102.846 C0.2057,96.705 -0.9388,90.033 3.034,84.185 C3.64,83.349 4.135,82.194 4.986,81.81 C8.524,80.139 11.807,77.214 16.119,77.78 C17.324,77.901 18.378,78.878 19.481,79.481 C18.445,80.108 17.52,81.054 16.453,81.333 C8.8,83.265 4.127,86.312 3.888,95.969 C3.683,103.914 7.391,110.237 11.338,116.477 C12.782,118.841 15.689,120.52 18.141,122.177 C22.154,124.726 29.113,122.857 31.905,119.028 C33.381,117.086 35.155,115.488 36.689,113.973 Z" id="Path"></path>
            <path d="M144.072,83.995 C135.309,87.115 127.255,81.937 123.907,74.326 C122.343,70.84 121.124,67.057 120.627,63.291 C119.778,56.696 126.781,49.263 133.211,50.261 C135.863,50.685 138.167,53.468 140.435,55.368 C141.299,56.053 141.449,57.522 142.18,58.343 C144.534,60.75 144.127,62.68 141.287,64.558 C137.543,66.926 133.961,69.507 130.488,72.14 C129.771,72.656 128.907,74.297 129.153,74.749 C129.998,76.157 131.165,77.721 132.588,78.214 C134.979,79.176 137.656,79.414 140.228,79.866 C140.791,79.94 141.621,80.011 142.045,79.685 C144.031,77.925 146.6,78.11 147.371,80.08 C148.249,82.103 146.208,83.704 144.072,83.995 Z M126.262,69.754 C127.51,68.964 128.706,68.282 129.819,67.36 C131.304,66.22 132.568,64.441 134.246,63.861 C137.071,62.973 137.48,61.311 136.598,59.021 C135.278,55.72 131.698,53.647 129.518,54.848 C124.016,57.825 122.662,63.483 126.262,69.754 Z" id="Shape"></path>
            <path d="M48.394,77.446 C51.181,78.003 53.969,78.56 56.756,79.117 C57.239,79.218 57.851,78.917 58.281,79.127 C59.356,79.649 60.407,80.36 61.298,81.125 C61.676,81.442 61.501,82.487 61.851,82.723 C64.303,84.381 64.564,86.17 62.827,88.649 C62.273,89.378 63.121,91.053 63.437,93.002 C63.277,93.057 62.346,93.468 61.442,93.96 C58.602,95.837 55.761,97.714 53.164,99.776 C52.607,100.236 52.465,101.896 52.794,102.588 C54.683,106.498 58.737,107.87 62.837,106.273 C63.768,105.861 64.804,105.234 65.794,105.25 C66.971,105.29 68.154,105.865 69.254,106.201 C68.787,107.436 68.51,108.964 67.637,109.802 C66.844,110.614 65.402,110.844 64.12,111.018 C56.513,112.307 50.976,109.748 47.185,103.185 C44.128,97.711 42.753,91.923 44.396,85.807 C45.303,83.257 46.853,80.752 48.394,77.446 Z M57.949,87.741 C56.754,86.097 56.017,84.741 55.043,83.736 C52.637,81.436 50.022,81.893 49.228,85.031 C48.483,87.794 48.356,90.791 48.521,93.597 C48.659,96.323 50.592,96.996 52.658,95.208 C54.035,94.016 55.385,92.744 56.412,91.315 C57.229,90.317 57.454,88.897 57.949,87.741 Z" id="Shape"></path>
            <path d="M316.424,24.032 C314.22,25.421 312.6,28.755 309.653,25.927 C308.166,24.473 309.159,22.429 310.644,21.2891 C312.501,19.9312 314.624,20.8969 316.424,24.032 Z" id="Path"></path>
        </g>
    </g>
</svg>
