<svg width="787" height="106" viewBox="0 0 787 106" fill="none" xmlns="http://www.w3.org/2000/svg">
<path d="M78.6 13.8C77.9 12.9 77.1 12.1 76.3 11.3C69.6 4.8 60 1.5 47.9 1.5H13C5.2 1.5 0.5 6 0 13.8C0 14.2 0 14.7 0 15.2V103.6C0 104.1 0 104.5 0 105H7.3C7.3 104.6 7.2 104.1 7.2 103.6V15.2C7.2 14.7 7.2 14.3 7.3 13.8C7.6 10.4 9.2 9.1 13 9.1H47.9C55.8 9.1 62.3 10.7 67.4 13.8C68.9 14.7 70.2 15.7 71.4 16.9C76.7 22.1 79.4 29.2 79.4 38.7C79.4 48.2 76.8 55.4 71.4 60.6C66 65.8 58.1 68.5 47.9 68.5H33V76.1H47.9C60 76.1 69.5 72.8 76.3 66.2C83.2 59.6 86.6 50.3 86.6 38.8C86.6 28.6 83.9 20.2 78.6 13.8Z" fill="url(#paint0_linear)"/>
<path d="M68.7 38.8C68.7 53 60.3 60.8 45.1 60.8H33.1V53.2H45.1C45.8 53.2 46.5 53.2 47.2 53.1C59.8 52.4 61.5 45.1 61.5 38.7C61.5 32.3 59.8 25.1 47 24.5C46.4 24.5 45.8 24.5 45.1 24.5H25.8V103.7C25.8 104.2 25.8 104.6 25.8 105.1H18.5C18.5 104.7 18.6 104.2 18.6 103.7V20.7C18.6 18.6 20.2 16.9 22.2 16.9H45.1C45.8 16.9 46.5 16.9 47.1 17C65.8 17.8 68.7 30.9 68.7 38.8Z" fill="url(#paint1_linear)"/>
<path d="M115 13.1C115.7 12.2 116.5 11.4 117.3 10.6C124 4.1 133.6 0.8 145.7 0.8H180.6C188.4 0.8 193.1 5.3 193.6 13.1C193.6 13.5 193.6 14 193.6 14.5V102.9C193.6 103.4 193.6 103.8 193.6 104.3H186.3C186.3 103.9 186.4 103.4 186.4 102.9V14.4C186.4 13.9 186.4 13.5 186.3 13C186 9.6 184.4 8.3 180.6 8.3H145.7C137.8 8.3 131.3 9.9 126.2 13C124.7 13.9 123.4 14.9 122.2 16.1C116.9 21.3 114.2 28.4 114.2 37.9C114.2 47.4 116.8 54.6 122.2 59.8C127.6 65 135.5 67.7 145.7 67.7H160.6V75.3H145.7C133.6 75.3 124.1 72 117.3 65.4C110.5 58.8 107 49.5 107 37.9C107 27.8 109.7 19.4 115 13.1Z" fill="url(#paint2_linear)"/>
<path d="M125 38C125 52.2 133.4 60 148.6 60H160.6V52.4H148.6C147.9 52.4 147.2 52.4 146.5 52.3C133.9 51.6 132.2 44.3 132.2 37.9C132.2 31.5 133.9 24.3 146.7 23.7C147.3 23.7 147.9 23.7 148.6 23.7H167.9V102.9C167.9 103.4 167.9 103.8 167.9 104.3H175.2C175.2 103.9 175.1 103.4 175.1 102.9V19.9C175.1 17.8 173.5 16.1 171.5 16.1H148.6C147.9 16.1 147.2 16.1 146.6 16.2C127.9 17.1 125 30.1 125 38Z" fill="url(#paint3_linear)"/>
<path d="M145.7 81.4L133.8 104.3H125.6L137.6 81.3C138.9 81.4 140.3 81.4 141.7 81.4H145.7Z" fill="url(#paint4_linear)"/>
<path d="M126.3 79.2C125.9 79.9 125.6 80.5 125.6 80.5L115.3 100.3C114.5 101.8 114.2 103.1 114.2 104.3H106.9C106.8 101.9 107.5 99.4 108.8 96.7L119.6 76.2C121.6 77.4 123.9 78.4 126.3 79.2Z" fill="url(#paint5_linear)"/>
<path d="M280.7 60.7C280.6 60.6 280.6 60.6 280.5 60.5C277.4 61.8 274.6 62.8 272.3 63.5C277.3 65.4 278.1 68.9 278.1 72.1C278.1 76 276.8 78.6 273.9 80.4C270.7 82.4 265.4 83.5 258.2 83.5C248.7 83.5 240.3 81.6 233.4 77.9C233.3 77.9 233.2 77.8 233.1 77.8L230.1 84C238.1 88.2 247.5 90.3 258.1 90.3C266.9 90.3 273.4 88.9 277.9 86C282.7 83 285.2 78.1 285.2 72.1C285.3 68.7 284.4 64.2 280.7 60.7ZM276.3 19.1C272.3 16.1 266.4 14.6 258.3 14.6C253.9 14.6 249.4 15.1 244.9 16.1C240.4 17.1 236.2 18.6 232.4 20.6C231.6 21 230.5 21.5 229.5 21.5L232.5 27.8C233.6 27.5 234.7 27 235.9 26.4C239.1 24.8 242.7 23.5 246.5 22.6C250.4 21.7 254.3 21.3 258.2 21.3C264.5 21.3 269 22.3 271.7 24.3C274.2 26.2 275.3 28.5 275.3 31.7C275.3 36.2 273.6 41.5 259.9 41.5H244.2C244.1 41.5 244 41.5 243.8 41.5V48.3C243.9 48.3 244 48.3 244.2 48.3H259.9C279.6 48.3 282.5 37.9 282.5 31.8C282.7 26.5 280.5 22.3 276.3 19.1ZM297.2 43.2C296.9 43.7 296.6 44.1 296.3 44.6C296.9 43.8 297.5 43 297.9 42.1C297.7 42.5 297.4 42.9 297.2 43.2ZM297.9 56.9C296.7 55.4 295.3 54.1 293.7 52.9C291.7 54.4 289.6 55.8 287.5 57C289.3 58.1 290.9 59.5 292.2 61C294.9 64.3 296.3 68.3 296.3 73.5C296.3 81 293.5 86.8 287.7 91.3C286.6 92.1 285.4 92.9 284.1 93.6C278.3 96.7 270 98.2 259.6 98.2C252.9 98.2 246.6 97.5 240.9 96.1C238.1 95.4 235.6 94.6 233.1 93.6C230.9 92.7 228.8 91.7 226.9 90.6L223.9 96.9C228.3 99.4 233.4 101.3 238.9 102.7C245.2 104.3 252.1 105 259.5 105C274 105 285 102.2 292.2 96.6C293.4 95.7 294.5 94.7 295.5 93.7C300.7 88.4 303.4 81.6 303.4 73.6C303.5 66.9 301.6 61.4 297.9 56.9Z" fill="url(#paint6_linear)"/>
<path d="M301.1 29.5C301.1 34.2 300 38.4 297.9 42.1C297.7 42.5 297.4 42.8 297.2 43.2C296.9 43.7 296.6 44.1 296.3 44.6C296.3 44.7 296.2 44.7 296.2 44.8C286 58.9 268.4 61.5 263.7 62C263.6 62 263.5 62 263.4 62C263.3 62 263.2 62 263.1 62C262.8 62 262.6 62 262.6 62H244.5C244.4 62 244.3 62 244.1 62V55.2C244.2 55.2 244.3 55.2 244.5 55.2H262.6C262.6 55.2 262.6 55.2 262.7 55.2C263.4 55.2 270.8 55.1 278.2 51.6C282.7 49.5 287.2 46.1 290.3 40.8C292.7 37.7 293.9 34 293.9 29.5C293.9 22.7 291.3 17.4 285.9 13.2C285.5 12.9 285.1 12.6 284.6 12.3C279.1 8.6 271 6.8 260.3 6.8C254.6 6.8 249 7.4 243.5 8.7C239.6 9.6 235.9 10.8 232.5 12.4C231.3 13 230.1 13.6 228.9 14.2C228 14.8 227.3 15.4 226.9 16.1L223.7 9.4C224.2 9.1 224.6 8.7 225.1 8.4C230.1 5.6 235.7 3.4 241.8 2.1C247.8 0.7 254 0 260.3 0C273.5 0 283.6 2.7 290.4 8C292.1 9.3 293.6 10.8 294.9 12.3C299 17.1 301.1 22.9 301.1 29.5Z" fill="url(#paint7_linear)"/>
<path d="M378.5 64.4H362L358.9 72.1H381.6L378.5 64.4Z" fill="url(#paint8_linear)"/>
<path d="M422.8 98.9L385.7 1.5H377.7L416.1 102.4C416.5 103.4 416.7 104.2 416.9 104.9H424.2C424.1 103.1 423.6 101.1 422.8 98.9Z" fill="url(#paint9_linear)"/>
<path d="M355.2 1.5L318.3 98.8C317.4 101.1 317 103.1 316.8 105H324.1C324.2 104.3 324.5 103.5 324.9 102.5L363.1 1.6H355.2V1.5Z" fill="url(#paint10_linear)"/>
<path d="M384.9 79.5H356L352.2 86.6H388.8L384.9 79.5Z" fill="url(#paint11_linear)"/>
<path d="M406.4 105H398.5L393.4 90.9L392 87L389.9 81.1L382.5 60.8L381.4 57.6L370.4 26.5L358.2 60.8L357.3 63.5L355.2 69.4L354.2 72.1L351 81.1L349.9 84L347.9 89.7L346.9 92.6L342.5 105H334.6C334.8 104.6 335 104.1 335.2 103.6L341.9 84.8L342.3 83.6L367 14.2C367.6 12.6 368.9 11.6 370.3 11.6H370.6C372.1 11.6 373.4 12.6 373.9 14.2L400 87.2L406 103.7C406.1 104.1 406.2 104.6 406.4 105Z" fill="url(#paint12_linear)"/>
<path d="M515.3 56.9H479.1V64.4H515.3V56.9Z" fill="url(#paint13_linear)"/>
<path d="M545.5 1.5H538.2V103.8C538.2 104.3 538.2 104.9 538.1 105.4H545.4C545.4 104.9 545.4 104.4 545.4 103.8V1.9C545.6 1.8 545.6 1.7 545.5 1.5Z" fill="url(#paint14_linear)"/>
<path d="M474.2 56.9V61.5V47V56.9Z" fill="url(#paint15_linear)"/>
<path d="M515.3 39.5H479.1V47.1H515.3V39.5Z" fill="url(#paint16_linear)"/>
<path d="M455.6 103.8V1.5H448.3C448.3 1.6 448.3 1.7 448.3 1.9V103.8C448.3 104.3 448.3 104.9 448.3 105.4H455.6C455.6 104.9 455.6 104.3 455.6 103.8Z" fill="url(#paint17_linear)"/>
<path d="M527 105.3H519.7C519.7 104.8 519.7 104.3 519.7 103.7V1.9C519.7 1.8 519.7 1.7 519.7 1.5H527V103.8C527 104.3 527 104.9 527 105.3Z" fill="url(#paint18_linear)"/>
<path d="M474.2 1.9V103.8C474.2 104.3 474.2 104.9 474.2 105.4H466.9C466.9 104.9 467 104.4 467 103.8V1.5H474.3C474.2 1.7 474.2 1.8 474.2 1.9Z" fill="url(#paint19_linear)"/>
<path d="M636.1 76.6C634 71.2 631.5 67 628.6 64C626 66.1 623.5 67.6 621.5 68.6C621.8 68.8 622.1 69 622.4 69.3C625 71.4 627.4 75.1 629.4 80.3L639.1 105.1H647.1L636.1 76.6ZM636.1 76.6C634 71.2 631.5 67 628.6 64C626 66.1 623.5 67.6 621.5 68.6C621.8 68.8 622.1 69 622.4 69.3C625 71.4 627.4 75.1 629.4 80.3L639.1 105.1H647.1L636.1 76.6ZM636.1 76.6C634 71.2 631.5 67 628.6 64C626 66.1 623.5 67.6 621.5 68.6C621.8 68.8 622.1 69 622.4 69.3C625 71.4 627.4 75.1 629.4 80.3L639.1 105.1H647.1L636.1 76.6ZM584.2 103.5V1.5H577V103.4C577 103.9 577 104.4 577 104.9H584.3C584.2 104.5 584.2 104 584.2 103.5ZM631.5 1.5L611.6 39.1H602.7V1.5H595.5V43.4C595.5 45.8 597.1 47.7 599.1 47.7H613.6C614.8 47.7 616 46.9 616.7 45.7L640.1 1.5H631.5ZM664.1 97.2L652.2 68.2C649.7 62.2 646.9 57.1 643.7 53.1C642.7 51.9 641.7 50.7 640.7 49.7C639.3 52.2 637.7 54.5 636.2 56.4C637 57.2 637.7 58.1 638.5 59C641.2 62.4 643.6 66.8 645.8 72L657.7 101C658.4 102.5 658.7 103.8 658.7 104.9H666C665.8 102.6 665.2 100 664.1 97.2ZM636.1 76.6C634 71.2 631.5 67 628.6 64C626 66.1 623.5 67.6 621.5 68.6C621.8 68.8 622.1 69 622.4 69.3C625 71.4 627.4 75.1 629.4 80.3L639.1 105.1H647.1L636.1 76.6Z" fill="url(#paint20_linear)"/>
<path d="M658.8 1.5C658.6 3.8 657.8 6.3 656.4 8.7L636 45.7C634.6 48.3 633 50.6 631.5 52.6C629 55.9 626.3 58.4 623.8 60.3C617.6 65.1 612.4 66.2 612.4 66.2H602.7V103.5C602.7 104 602.7 104.5 602.7 105H595.4C595.4 104.5 595.5 104 595.5 103.5V61.9C595.5 59.5 597.1 57.6 599.1 57.6H612.4C612.4 57.6 612.4 57.6 612.5 57.6C613.5 57.5 621.3 56.7 627.8 45.1L650.4 4C650.9 3.1 651.2 2.3 651.4 1.5H658.8Z" fill="url(#paint21_linear)"/>
<path d="M243.5 62.1V62H244.5L243.5 62.1Z" fill="url(#paint22_linear)"/>
<path d="M740.9 64.4H724.3L721.2 72.1H744L740.9 64.4Z" fill="url(#paint23_linear)"/>
<path d="M785.2 98.9L748.1 1.5H740.1L778.6 102.5C779 103.5 779.2 104.3 779.4 105H786.7C786.5 103.1 786 101.1 785.2 98.9Z" fill="url(#paint24_linear)"/>
<path d="M717.5 1.5L680.6 98.9C679.7 101.2 679.3 103.2 679.1 105.1H686.4C686.5 104.4 686.8 103.6 687.2 102.6L725.4 1.7H717.5V1.5Z" fill="url(#paint25_linear)"/>
<path d="M747.3 79.5H718.4L714.5 86.6H751.1L747.3 79.5Z" fill="url(#paint26_linear)"/>
<path d="M768.8 105H760.9L755.8 90.9L754.4 87L752.3 81.1L744.9 60.8L743.8 57.6L732.8 26.5L720.6 60.8L719.7 63.5L717.6 69.4L716.6 72.1L713.4 81.1L712.3 84L710.3 89.7L709.3 92.6L704.9 105H697C697.2 104.6 697.4 104.1 697.6 103.6L704.3 84.8L704.7 83.6L729.4 14.2C730 12.6 731.3 11.6 732.7 11.6H733C734.5 11.6 735.8 12.6 736.3 14.2L762.4 87.2L768.4 103.7C768.4 104.1 768.6 104.6 768.8 105Z" fill="url(#paint27_linear)"/>
<defs>
<linearGradient id="paint0_linear" x1="393.35" y1="0" x2="393.35" y2="135" gradientUnits="userSpaceOnUse">
<stop stop-color="#587162"/>
<stop offset="1" stop-color="#61B893"/>
</linearGradient>
<linearGradient id="paint1_linear" x1="393.35" y1="0" x2="393.35" y2="135" gradientUnits="userSpaceOnUse">
<stop stop-color="#587162"/>
<stop offset="1" stop-color="#61B893"/>
</linearGradient>
<linearGradient id="paint2_linear" x1="393.35" y1="0" x2="393.35" y2="135" gradientUnits="userSpaceOnUse">
<stop stop-color="#587162"/>
<stop offset="1" stop-color="#61B893"/>
</linearGradient>
<linearGradient id="paint3_linear" x1="393.35" y1="0" x2="393.35" y2="135" gradientUnits="userSpaceOnUse">
<stop stop-color="#587162"/>
<stop offset="1" stop-color="#61B893"/>
</linearGradient>
<linearGradient id="paint4_linear" x1="393.35" y1="0" x2="393.35" y2="135" gradientUnits="userSpaceOnUse">
<stop stop-color="#587162"/>
<stop offset="1" stop-color="#61B893"/>
</linearGradient>
<linearGradient id="paint5_linear" x1="393.35" y1="0" x2="393.35" y2="135" gradientUnits="userSpaceOnUse">
<stop stop-color="#587162"/>
<stop offset="1" stop-color="#61B893"/>
</linearGradient>
<linearGradient id="paint6_linear" x1="393.35" y1="0" x2="393.35" y2="135" gradientUnits="userSpaceOnUse">
<stop stop-color="#587162"/>
<stop offset="1" stop-color="#61B893"/>
</linearGradient>
<linearGradient id="paint7_linear" x1="393.35" y1="0" x2="393.35" y2="135" gradientUnits="userSpaceOnUse">
<stop stop-color="#587162"/>
<stop offset="1" stop-color="#61B893"/>
</linearGradient>
<linearGradient id="paint8_linear" x1="393.35" y1="0" x2="393.35" y2="135" gradientUnits="userSpaceOnUse">
<stop stop-color="#587162"/>
<stop offset="1" stop-color="#61B893"/>
</linearGradient>
<linearGradient id="paint9_linear" x1="393.35" y1="0" x2="393.35" y2="135" gradientUnits="userSpaceOnUse">
<stop stop-color="#587162"/>
<stop offset="1" stop-color="#61B893"/>
</linearGradient>
<linearGradient id="paint10_linear" x1="393.35" y1="0" x2="393.35" y2="135" gradientUnits="userSpaceOnUse">
<stop stop-color="#587162"/>
<stop offset="1" stop-color="#61B893"/>
</linearGradient>
<linearGradient id="paint11_linear" x1="393.35" y1="0" x2="393.35" y2="135" gradientUnits="userSpaceOnUse">
<stop stop-color="#587162"/>
<stop offset="1" stop-color="#61B893"/>
</linearGradient>
<linearGradient id="paint12_linear" x1="393.35" y1="0" x2="393.35" y2="135" gradientUnits="userSpaceOnUse">
<stop stop-color="#587162"/>
<stop offset="1" stop-color="#61B893"/>
</linearGradient>
<linearGradient id="paint13_linear" x1="393.35" y1="0" x2="393.35" y2="135" gradientUnits="userSpaceOnUse">
<stop stop-color="#587162"/>
<stop offset="1" stop-color="#61B893"/>
</linearGradient>
<linearGradient id="paint14_linear" x1="393.35" y1="0" x2="393.35" y2="135" gradientUnits="userSpaceOnUse">
<stop stop-color="#587162"/>
<stop offset="1" stop-color="#61B893"/>
</linearGradient>
<linearGradient id="paint15_linear" x1="393.35" y1="0" x2="393.35" y2="135" gradientUnits="userSpaceOnUse">
<stop stop-color="#587162"/>
<stop offset="1" stop-color="#61B893"/>
</linearGradient>
<linearGradient id="paint16_linear" x1="393.35" y1="0" x2="393.35" y2="135" gradientUnits="userSpaceOnUse">
<stop stop-color="#587162"/>
<stop offset="1" stop-color="#61B893"/>
</linearGradient>
<linearGradient id="paint17_linear" x1="393.35" y1="0" x2="393.35" y2="135" gradientUnits="userSpaceOnUse">
<stop stop-color="#587162"/>
<stop offset="1" stop-color="#61B893"/>
</linearGradient>
<linearGradient id="paint18_linear" x1="393.35" y1="0" x2="393.35" y2="135" gradientUnits="userSpaceOnUse">
<stop stop-color="#587162"/>
<stop offset="1" stop-color="#61B893"/>
</linearGradient>
<linearGradient id="paint19_linear" x1="393.35" y1="0" x2="393.35" y2="135" gradientUnits="userSpaceOnUse">
<stop stop-color="#587162"/>
<stop offset="1" stop-color="#61B893"/>
</linearGradient>
<linearGradient id="paint20_linear" x1="393.35" y1="0" x2="393.35" y2="135" gradientUnits="userSpaceOnUse">
<stop stop-color="#587162"/>
<stop offset="1" stop-color="#61B893"/>
</linearGradient>
<linearGradient id="paint21_linear" x1="393.35" y1="0" x2="393.35" y2="135" gradientUnits="userSpaceOnUse">
<stop stop-color="#587162"/>
<stop offset="1" stop-color="#61B893"/>
</linearGradient>
<linearGradient id="paint22_linear" x1="393.35" y1="0" x2="393.35" y2="135" gradientUnits="userSpaceOnUse">
<stop stop-color="#587162"/>
<stop offset="1" stop-color="#61B893"/>
</linearGradient>
<linearGradient id="paint23_linear" x1="393.35" y1="0" x2="393.35" y2="135" gradientUnits="userSpaceOnUse">
<stop stop-color="#587162"/>
<stop offset="1" stop-color="#61B893"/>
</linearGradient>
<linearGradient id="paint24_linear" x1="393.35" y1="0" x2="393.35" y2="135" gradientUnits="userSpaceOnUse">
<stop stop-color="#587162"/>
<stop offset="1" stop-color="#61B893"/>
</linearGradient>
<linearGradient id="paint25_linear" x1="393.35" y1="0" x2="393.35" y2="135" gradientUnits="userSpaceOnUse">
<stop stop-color="#587162"/>
<stop offset="1" stop-color="#61B893"/>
</linearGradient>
<linearGradient id="paint26_linear" x1="393.35" y1="0" x2="393.35" y2="135" gradientUnits="userSpaceOnUse">
<stop stop-color="#587162"/>
<stop offset="1" stop-color="#61B893"/>
</linearGradient>
<linearGradient id="paint27_linear" x1="393.35" y1="0" x2="393.35" y2="135" gradientUnits="userSpaceOnUse">
<stop stop-color="#587162"/>
<stop offset="1" stop-color="#61B893"/>
</linearGradient>
</defs>
</svg>
