<svg width="20" height="16" viewBox="0 0 20 16" fill="none" xmlns="http://www.w3.org/2000/svg">
<path d="M4.95114 14.8549C4.29967 15.6987 3.60478 16.0761 2.86645 15.9873C2.17155 15.8541 1.69381 15.4766 1.43322 14.8549C1.17264 14.1887 1.38979 13.4116 2.08469 12.5234C2.60586 11.8128 2.99674 11.1245 3.25733 10.4584C3.56135 9.74782 3.7785 9.05948 3.90879 8.39334C2.73616 8.30452 1.78067 7.88263 1.04235 7.12767C0.347448 6.37272 0 5.39572 0 4.19667C0 2.95321 0.369164 1.95401 1.10749 1.19905C1.84582 0.399683 2.84473 0 4.10423 0C5.40717 0 6.4278 0.444093 7.16612 1.33228C7.94788 2.22046 8.33876 3.50833 8.33876 5.19588C8.33876 6.66138 8.09989 8.23791 7.62215 9.92546C7.18784 11.5686 6.2975 13.2117 4.95114 14.8549ZM16.6124 14.8549C15.9609 15.6987 15.266 16.0761 14.5277 15.9873C13.8328 15.8541 13.355 15.4766 13.0945 14.8549C12.8339 14.1887 13.051 13.4116 13.7459 12.5234C14.2671 11.8128 14.658 11.1245 14.9186 10.4584C15.2226 9.74782 15.4397 9.05948 15.57 8.39334C14.3974 8.30452 13.4419 7.88263 12.7036 7.12767C12.0087 6.37272 11.6612 5.39572 11.6612 4.19667C11.6612 2.95321 12.0304 1.95401 12.7687 1.19905C13.5071 0.399683 14.506 0 15.7655 0C17.0684 0 18.089 0.444093 18.8274 1.33228C19.6091 2.22046 20 3.50833 20 5.19588C20 6.66138 19.7611 8.23791 19.2834 9.92546C18.8491 11.5686 17.9587 13.2117 16.6124 14.8549Z" fill="#597263"/>
</svg>
