<svg width="984" height="464" viewBox="0 0 984 464" fill="none" xmlns="http://www.w3.org/2000/svg">
<g clip-path="url(#clip0)">
<path d="M170.02 348.108C173.081 346.951 175.44 346.319 177.631 345.057C185.691 340.538 192.942 334.886 198.786 327.758C199.791 326.477 200.597 325.081 201.445 323.843C205.413 317.891 209.182 311.824 213.15 305.873C213.883 304.833 215.697 304.684 217.07 304.148C217.177 305.805 218.082 307.922 217.234 309.161C214.544 313.59 211.255 317.674 208.523 321.946C206.984 324.381 205.844 327.047 205.061 329.785C204.35 332.167 205.915 333.602 208.147 332.498C216.104 328.849 223.818 324.928 228.78 317.024C232.088 311.755 236.037 306.989 240.184 302.337C241.232 301.214 243.802 301.368 245.731 301.02C245.45 303.118 245.852 305.875 244.732 307.356C241.485 311.597 237.442 315.377 233.796 319.388C232.749 320.512 231.502 321.52 231.011 322.832C230.331 324.7 230.208 326.755 229.728 328.738C231.5 328.432 233.356 328.44 234.845 327.704C238.094 325.991 241.301 324.12 244.424 321.935C245.283 321.367 245.89 319.856 246.067 318.629C248.947 306.732 256.215 297.368 263.924 288.391C264.584 287.708 265.243 287.026 266.187 286.773C267.76 286.352 269.92 285.604 270.759 286.222C271.799 286.955 272.316 289.514 271.824 290.825C269.513 296.67 267.287 302.829 263.821 308.14C260.744 313.011 256.228 316.918 252.31 321.17C251.923 321.611 251.577 322.209 251.347 322.608C251.631 323.038 251.915 323.468 252.198 323.897C256.894 321.291 261.705 318.484 266.442 316.035C274.744 311.788 277.482 303.132 282.539 296.214C283.89 294.335 285.156 292.141 286.948 290.65C288.038 289.684 289.894 289.692 291.467 289.27C291.574 290.927 292.279 292.93 291.588 294.126C289.401 297.915 286.772 301.317 284.228 305.032C282.49 307.352 280.751 309.672 279.055 312.15C278.552 312.79 278.491 313.818 278.23 314.731C278.471 315.003 278.755 315.433 278.996 315.705C282.246 313.992 285.537 312.436 288.744 310.565C295.661 306.183 301.413 300.596 305.558 293.417C307.285 290.426 309.652 287.938 312.177 285.407C312.952 284.525 314.651 284.575 316.066 284.196C315.889 285.423 316.311 286.996 315.693 287.836C312.919 291.951 309.86 295.636 307.044 299.593C305.463 301.871 304.123 304.421 302.585 306.856C302.868 307.286 303.309 307.674 303.593 308.103C306.413 306.674 309.715 305.789 312.094 303.971C319.575 297.921 326.731 291.284 333.971 284.961C335.218 283.953 336.181 282.515 337.47 281.664C338.486 281.054 339.787 280.874 341.045 280.537C341.267 281.995 341.888 283.683 341.354 284.837C340.026 288.059 338.1 290.935 336.572 294.041C335.808 295.594 335.202 297.105 334.595 298.616C334.994 298.847 335.393 299.077 335.635 299.349C337.143 297.428 339.007 295.58 340.116 293.428C341.571 290.679 342.113 287.668 343.767 285.033C345.494 282.042 347.535 278.967 350.102 276.593C353.329 273.537 357.322 271.456 360.434 268.599C362.886 266.425 364.854 263.707 366.665 261.03C372.057 252.843 377.008 244.268 382.442 236.238C383.865 234.002 386.137 230.528 389.412 232.684C392.33 234.768 390.131 237.886 388.55 240.163C384.237 246.713 379.767 253.305 374.855 259.51C365.88 270.68 357.618 281.996 352.432 295.354C352.244 295.91 352.255 296.581 351.994 297.494C355.634 297.867 357.645 295.306 358.911 293.112C361.371 289.082 363.432 284.821 365.252 280.288C366.465 277.266 368.026 276.173 371.394 276.788C373.135 276.996 375.064 276.647 376.752 276.027C383.262 273.271 383.461 273.386 384.088 280.129C390.318 279.471 394.55 275.135 399.234 271.857C399.821 271.531 400.124 270.775 400.753 270.607C401.655 270.197 402.683 270.258 403.626 270.006C403.565 271.033 404.101 272.407 403.641 273.204C402.06 275.482 399.88 277.415 398.499 279.808C391.392 291.657 384.441 303.465 377.691 315.388C371.861 325.715 366.43 336.273 360.643 346.758C359.879 348.311 358.916 349.749 357.753 351.072C354.895 354.872 351.665 355.4 348.137 352.3C343.528 348.309 341.309 343.173 340.578 337.3C340.356 335.843 341.319 334.405 341.768 332.936C342.282 332.967 342.839 333.155 343.352 333.186C343.659 334.958 343.65 336.814 344.429 338.46C346.069 342.066 347.752 345.829 350.136 349.067C351.954 351.446 354.313 350.814 355.767 348.064C359.294 341.725 362.979 335.344 366.506 329.005C374.45 315.245 382.436 301.643 390.223 287.925C391.374 285.931 392.368 283.979 392.837 281.325C391.621 281.819 390.405 282.314 389.189 282.808C385.614 283.935 381.977 286.089 379.013 281.32C377.595 279.172 370.372 281.782 368.487 284.815C366.645 288.006 364.404 290.966 362.762 294.272C360.889 297.976 357.797 299.648 354.221 300.774C350.017 302.069 347.329 299.587 348.719 295.338C349.848 292.001 351.69 288.81 353.175 285.547C354.703 282.44 356.273 279.491 357.559 276.112C352.917 279.548 347.906 282.239 346.278 288.743C344.765 295.049 341.342 300.517 335.031 303.388C333.972 303.84 332.085 304.346 331.56 303.644C330.678 302.869 330.015 301.024 330.234 299.954C330.745 297.457 331.854 295.305 333.098 291.769C330.059 294.269 328.037 296.159 325.931 297.735C319.255 302.389 312.381 306.929 305.421 311.153C304.132 312.004 300.849 311.704 299.726 310.657C297.437 308.404 296.232 309.57 294.356 310.747C290.803 313.216 287.251 315.685 283.414 317.724C277.932 320.542 277.691 320.269 273.627 315.796C269.13 318.517 264.676 321.397 260.138 323.961C256.344 326.158 252.362 328.91 247.576 326.147C246.977 325.802 245.646 326.496 244.745 326.906C242.04 328.136 239.619 329.796 237.03 330.827C229.262 333.92 229.22 333.763 224.807 327.36C221.055 329.714 217.345 332.225 213.394 334.463C207.409 337.921 205.468 337.598 200.208 332.434C197.484 334.85 194.886 337.737 191.763 339.922C185.905 343.852 180.089 347.939 173.778 350.81C168.055 353.355 164.884 350.327 165.568 344.076C165.734 342.177 166.214 340.194 166.054 337.709C165.163 338.79 164.473 339.986 163.54 340.91C155.138 348.556 146.893 356.159 135.485 358.879C127.422 360.871 122.341 357.007 122.949 348.584C123.207 345.144 124.022 341.891 124.782 337.81C121.407 339.052 118.503 340.167 115.399 341.167C106.016 344.524 96.7907 347.839 87.3234 350.882C83.9055 351.966 80.4877 353.05 77.0163 353.306C63.6142 354.875 55.2553 346.326 56.5292 332.837C57.4186 322.316 62.3272 313.584 68.7889 305.615C90.929 278.781 117.762 256.251 148.702 238.353C155.704 234.286 163.315 231.235 171.844 233.501C178.192 235.171 181.899 239.572 183.186 245.632C184.99 254.252 183.468 262.413 179.619 270.693C176.418 277.619 173.09 284.074 167.285 288.832C163.66 291.657 159.436 294.138 154.959 295.674C148.637 297.874 142.978 292.479 143.452 285.441C144.03 277.532 147.189 270.449 151.387 264.098C153.313 261.222 155.439 258.461 157.607 255.858C158.267 255.175 159.809 255.268 160.91 254.973C160.691 256.043 160.871 257.343 160.41 258.141C157.302 263.525 153.637 268.721 150.927 274.336C149.327 277.799 148.566 281.879 148.12 285.876C147.569 290.743 150.373 293.026 154.964 291.29C162.974 288.47 168.242 282.338 172.786 275.39C176.869 269.239 179.399 262.324 180.103 254.887C181.45 241.041 174.889 236.056 162.054 238.484C155.637 239.698 149.253 242.925 143.384 246.184C128.196 254.299 115.067 265.065 102.065 276.303C87.6579 288.591 74.3439 302.441 64.1896 318.647C59.8033 325.554 58.2818 333.716 61.1444 341.883C63.2176 347.733 67.175 350.549 73.3621 349.734C79.2347 349.003 85.2224 348.073 90.9572 346.2C102.427 342.452 113.77 338.233 125.113 334.013C126.644 333.435 127.838 331.598 128.759 330.002C136.346 316.17 146.338 304.39 160.425 296.57C162.772 295.266 165.561 294.351 168.277 293.791C173.551 292.715 176.933 296.529 175.996 301.837C174.631 309.957 170.003 316.591 165.291 322.91C159.228 331.109 152.199 338.218 143.563 343.735C141.96 344.67 140.272 345.291 138.626 346.069C138.343 345.639 138.258 345.325 137.975 344.895C141.37 342.468 144.765 340.041 147.961 337.499C157.307 329.601 164.732 320.195 170.194 309.123C170.654 308.325 171.272 307.486 171.376 306.615C171.572 304.202 171.611 301.832 171.808 299.419C169.123 299.465 165.913 298.808 163.638 299.754C147.768 307.21 137.315 319.787 130.433 335.622C128.571 339.998 127.465 344.677 126.673 349.272C125.767 354.066 128.539 356.863 133.058 355.484C138.478 353.694 143.772 351.433 148.498 348.312C159.9 340.537 168.687 329.923 177.559 319.623C178.994 318.059 182.116 315.874 182.914 316.334C185.875 318.575 183.181 320.477 181.873 322.513C177.318 328.791 172.606 335.11 170.643 342.884C170.037 344.395 170.059 345.738 170.02 348.108ZM266.241 297.041C260.871 297.131 251.574 310.242 251.687 316.955C258.949 311.974 262.664 305.079 266.241 297.041Z" fill="#3369A7"/>
<path d="M694.63 187.817C689.884 192.123 685.264 196.901 680.277 200.934C675.719 204.684 670.678 207.889 665.637 211.094C664.463 211.746 662.48 211.265 660.98 211.33C660.873 209.673 660.368 207.786 661.016 206.432C665.369 197.512 670.078 188.665 674.829 179.975C679.538 171.127 684.405 162.238 689.072 153.234C690.714 149.928 691.203 146.088 692.846 142.783C694.603 139.277 696.917 135.96 699.273 132.801C699.891 131.961 701.748 131.969 703.006 131.632C703.028 132.974 703.649 134.662 703.074 135.659C699.892 141.4 696.469 146.869 693.245 152.452C688.221 161.384 683.355 170.273 678.688 179.278C674.324 187.527 670.16 195.891 665.838 204.297C665.493 204.896 665.389 205.766 664.867 207.592C666.827 206.729 668.043 206.235 669.217 205.583C680.976 197.881 691.201 188.23 699.505 177.071C702.866 172.631 703.95 166.609 706.471 161.551C710.678 153.344 715.241 145.21 720.046 137.349C721.584 134.914 724.236 132.855 726.656 131.195C727.631 130.428 729.76 130.195 730.599 130.812C731.439 131.43 732.029 133.632 731.611 134.587C730.252 138.322 728.935 142.215 726.736 145.333C719.994 155.399 712.569 164.805 706.026 174.987C703.021 179.5 701.612 184.935 699.447 190.066C699.846 190.297 700.129 190.726 700.528 190.957C702.907 189.139 705.611 187.909 707.549 185.704C713.75 178.649 719.709 171.321 725.468 163.877C728.83 159.437 731.593 154.651 734.713 149.938C735.446 148.899 736.493 147.775 737.552 147.323C738.453 146.913 739.723 147.247 740.866 147.109C740.846 148.294 741.383 149.668 740.922 150.465C738.881 153.541 736.441 156.386 734.2 159.347C729.184 166.422 723.413 173.194 722.858 182.445C722.549 187.584 724.24 189.491 729.273 188.143C734.463 186.752 739.6 184.533 744.38 182.241C745.711 181.547 746.778 179.238 747.143 177.455C750.495 165.431 756.325 155.104 767.109 148.169C768.985 146.992 772.529 146.379 773.81 147.385C775.29 148.505 776.018 151.85 775.779 154.105C775.26 158.458 773.713 162.75 772.48 166.957C771.989 168.269 770.942 169.392 770.45 170.704C770.189 171.617 770.012 172.844 770.38 173.588C770.664 174.018 772.133 174.467 772.877 174.099C777.899 172.079 782.636 169.63 785.63 164.445C787.817 160.656 791.002 157.443 794.186 154.23C795.004 153.505 797.186 154.1 798.728 154.193C798.478 155.777 798.47 157.634 797.579 158.715C795.181 161.717 792.342 164.332 789.944 167.335C789.054 168.416 788.562 169.728 787.296 171.921C795.412 170.758 800.883 167.269 805.135 161.747C807.26 158.986 809.544 156.183 812.153 153.967C813.127 153.2 815.509 153.911 817.166 153.804C816.916 155.388 817.065 157.202 816.175 158.284C814.552 160.404 812.487 162.137 810.381 163.713C807.96 165.373 806.767 167.21 807.61 170.355C809.466 170.364 811.365 170.529 813.221 170.537C811.946 174.587 806.714 175.821 803.7 172.751C801.81 170.729 800.437 171.266 798.477 172.128C795.772 173.359 793.141 174.232 790.352 175.148C789.565 175.359 788.15 175.738 787.709 175.351C783.142 171.517 779.37 175.056 775.323 176.309C773.006 177.099 770.352 176.63 767.867 176.79C766.409 177.012 764.794 177.276 763.62 177.928C760.728 179.715 758.161 182.088 755.311 184.032C754.022 184.883 752.061 185.745 750.907 185.212C746.259 183.592 743.189 186.605 739.342 187.973C735.767 189.1 732.276 190.541 728.689 190.996C722.502 191.811 719.53 188.899 718.915 182.827C718.861 181.999 718.766 181.013 718.774 179.156C714.573 182.979 711.231 186.235 707.532 189.417C705.468 191.15 703.604 192.998 701.256 194.301C699.925 194.995 697.681 195.428 696.641 194.695C695.602 193.962 695.684 191.749 695.262 190.176C695.094 189.547 695.439 188.949 695.428 188.278C695.071 188.205 694.872 188.09 694.63 187.817ZM750.76 176.486C751.002 176.758 751.401 176.988 751.642 177.261C752.659 176.651 753.875 176.157 754.849 175.39C758.506 172.05 762.319 168.668 765.692 164.899C768.132 162.054 770.09 158.664 771.89 155.316C773.187 152.608 771.707 151.488 769.033 152.204C767.775 152.541 766.601 153.193 765.427 153.845C759.369 157.659 756.429 163.673 753.332 169.728C752.38 171.837 751.67 174.219 750.76 176.486ZM725.169 141.37C724.77 141.14 724.371 140.909 724.129 140.637C719.967 142.089 711.667 155.776 711.507 162.73C716.312 154.869 720.74 148.119 725.169 141.37Z" fill="#3369A7"/>
<path d="M549.526 232.598C546.529 235.255 543.732 238.027 540.736 240.684C533.569 246.65 526.203 252.501 518.837 258.352C518.292 258.835 516.98 258.343 516.152 258.397C516.413 257.484 516.348 255.984 517.05 255.459C520.361 252.717 523.672 249.976 524.107 245.308C524.2 243.766 524.135 242.267 524.174 239.896C521.911 241.514 520.192 242.649 518.83 243.857C513.896 248.719 507.7 251.39 501.179 253.475C498.547 254.348 495.736 253.922 495.334 251.164C495.059 248.878 496.954 246.515 497.822 244.092C498.819 244.667 500.089 245.001 500.614 245.703C500.982 246.448 500.291 247.644 499.926 249.428C502.442 248.753 504.771 248.635 506.489 247.5C511.646 244.096 516.959 240.65 521.59 236.543C523.067 235.136 522.853 231.822 523.207 229.367C523.956 224.615 523.552 219.329 525.455 215.111C527.244 211.092 531.257 207.825 534.756 204.528C536.663 202.837 539.306 202.634 541.595 204.887C543.884 207.139 544.16 209.425 542.506 212.059C538.35 218.567 534.236 225.232 529.922 231.782C527.651 235.256 527.462 235.812 528.168 247.254C532.454 243.746 536.636 241.108 540.093 237.654C545.802 231.91 551.07 225.778 556.538 219.762C557.816 218.24 558.495 216.372 559.573 214.734C560.924 212.855 562.233 210.819 564.024 209.328C564.842 208.603 566.51 209.167 567.81 208.987C567.476 210.257 567.541 211.757 566.85 212.953C563.669 218.694 560.245 224.163 556.864 229.788C557.305 230.176 557.746 230.563 558.302 230.752C560.397 228.505 562.734 226.53 564.63 224.168C569.038 218.604 573.405 212.882 577.772 207.161C579.05 205.639 580.148 202.816 582.667 204.67C584.83 206.45 582.965 208.298 581.772 210.135C579.415 213.295 577.5 216.842 575.743 220.347C575.167 221.344 575.389 222.802 575.212 224.029C575.611 224.26 575.852 224.532 576.251 224.762C577.498 223.754 579.029 223.175 579.677 221.821C583.247 215.64 586.616 209.343 589.829 203.088C591.053 200.737 592.227 200.085 594.39 201.866C595.67 202.871 597.024 203.52 598.378 204.168C602.754 206.03 603.501 208.19 600.884 212.262C597.806 217.132 594.571 222.045 591.535 227.072C590.96 228.069 590.741 229.139 590.322 230.094C590.721 230.325 591.32 230.67 591.718 230.9C593.372 228.266 594.827 225.516 596.481 222.882C597.214 221.842 598.02 220.446 599.006 220.351C599.991 220.255 601.314 221.418 601.924 222.435C602.25 223.022 601.244 224.302 600.626 225.142C599.161 227.221 597.653 229.142 596.145 231.063C595.254 232.144 594.648 233.655 593.547 233.95C591.502 234.498 588.671 235.257 587.59 234.366C586.509 233.476 586.295 230.162 587.017 228.452C588.345 225.23 590.586 222.27 592.47 219.236C594.585 215.804 596.856 212.33 599.086 208.698C595.151 207.224 593.034 208.129 590.919 211.561C588.041 216.546 586.443 222.537 581.172 226.141C576.016 229.545 574.117 229.38 570.115 223.878C568.637 225.285 566.961 226.577 565.526 228.142C561.493 232.594 557.66 237.161 553.543 241.298C552.495 242.421 550.083 242.225 548.311 242.531C548.319 240.675 548.013 238.903 548.378 237.119C548.67 235.693 549.633 234.255 550.439 232.859C549.967 232.985 549.725 232.713 549.526 232.598ZM539.22 209.231C530.305 209.934 523.723 222.486 528.105 229.403C532.66 223.126 537.341 217.32 539.22 209.231Z" fill="#3369A7"/>
<path d="M846.549 158.405C841.193 161.694 835.681 165.025 829.968 168.241C825.702 170.564 823.467 169.141 823.146 164.17C822.727 155.685 832.044 141.389 840.18 139.04C842.697 138.366 845.876 139.537 848.687 139.964C849.044 140.037 849.539 141.253 849.266 141.494C848.188 143.132 847.152 144.926 845.548 145.862C845.118 146.145 843.228 144.123 840.95 142.542C836.777 143.324 833.604 147.208 830.871 151.48C828.872 154.713 827.827 158.364 826.468 162.099C826.092 163.212 826.629 164.585 826.609 165.77C827.909 165.59 829.493 165.84 830.353 165.273C835.352 161.911 840.393 158.706 844.751 154.841C850.587 149.569 856.054 143.552 861.649 138.008C862.193 137.525 862.539 136.926 863.126 136.601C864.772 135.822 866.574 135.002 868.262 134.381C868.38 136.71 869.254 139.341 868.46 141.408C867.174 144.787 864.975 147.905 863.133 151.095C869.376 153.636 878.119 149.777 880.388 143.775C882.656 137.773 886.178 135.818 892.43 136.503C894.685 136.741 897.159 135.91 899.446 135.634C906.304 134.808 907.102 135.268 910.402 141.295C912.75 139.992 914.971 138.217 917.561 137.186C919.249 136.565 921.189 136.888 923.161 136.697C922.953 138.438 923.102 140.252 922.695 141.878C922.361 143.148 921.513 144.386 920.603 146.653C924.922 145.158 927.941 143.844 931.244 142.959C932.974 142.495 934.873 142.661 936.844 142.47C936.28 144.138 935.558 145.848 934.921 147.873C941.041 152.47 934.987 158.813 936.546 164.632C937.416 164.736 938.487 164.955 939.913 165.246C932.241 169.325 930.205 177.456 926.206 183.922C921.904 191.143 919.397 199.4 916.092 207.197C915.632 207.994 915.57 209.022 914.91 209.705C914.25 210.387 913.191 210.84 912.175 211.449C912.079 210.463 911.585 209.247 911.888 208.492C914.909 200.265 917.773 192.081 921.193 184.085C922.406 181.063 924.931 178.532 926.543 175.74C927.694 173.746 928.09 171.449 928.885 169.382C929.073 168.825 929.061 168.154 929.334 167.913C933.987 165.149 932.282 160.043 933.399 156.035C933.776 154.923 932.284 153.131 931.433 151.842C930.582 150.553 929.301 149.548 928.051 148.028C926.248 148.849 924.33 149.868 922.171 150.616C920.64 151.194 918.941 151.144 917.326 151.408C917.261 149.908 916.997 148.293 917.247 146.709C917.497 145.125 918.145 143.772 918.595 142.303C918.311 141.873 917.912 141.643 917.628 141.213C914.348 143.441 911.068 145.668 907.987 148.011C906.153 149.345 904.845 151.381 903.168 152.673C902.351 153.398 900.851 153.462 899.75 153.757C899.969 152.687 899.947 151.345 900.365 150.39C901.747 147.997 903.328 145.719 904.667 143.169C905.086 142.214 905.451 140.431 904.81 139.928C904.128 139.268 902.386 139.06 901.243 139.198C897.657 139.653 895.121 141.513 893.363 145.018C891.762 148.481 889.406 151.641 886.924 154.329C884.557 156.817 881.599 157.104 878.942 154.108C878.217 153.29 876.434 152.925 875.333 153.22C871.789 153.833 868.34 155.431 864.827 155.53C860.327 155.724 856.963 157.637 854.051 160.609C853.663 161.05 853.161 161.69 852.531 161.858C850.844 162.479 849.114 162.943 847.583 163.522C847.434 161.707 846.97 159.977 846.549 158.405ZM888.196 147.751C884.556 147.378 882.921 148.827 884.205 152.36C885.525 150.995 886.803 149.473 888.196 147.751Z" fill="#3369A7"/>
<path d="M445.789 252.471C444.554 254.151 443.706 255.389 442.616 256.356C439.819 259.128 436.738 261.47 434.34 264.473C433.335 265.754 433.253 267.967 432.888 269.75C434.703 269.601 437.242 270.269 438.331 269.303C442.502 265.994 446.829 262.643 449.961 258.602C466.821 237.227 480.249 213.739 492.681 189.674C493.026 189.076 493.13 188.205 493.925 186.138C488.105 187.697 483.387 188.962 478.669 190.226C472.378 191.911 466.045 193.44 459.953 195.241C456.378 196.367 451.879 196.561 450.638 202.625C449.503 200.906 447.939 199.471 447.433 197.584C447.223 196.798 448.888 194.834 450.104 194.34C456.499 191.784 462.893 189.227 469.457 187.3C488.203 181.771 507.118 176.872 525.581 170.913C537.795 166.798 549.545 160.952 561.506 155.893C566.213 153.957 570.721 151.907 575.512 150.286C576.885 149.749 579.854 150.134 580.463 151.15C581.315 152.439 581.486 155.596 580.554 156.52C577.097 159.975 572.999 162.927 569.144 166.152C568.599 166.635 567.686 166.374 565.914 166.68C567.767 164.161 569.275 162.239 570.971 159.762C569.356 160.026 568.171 160.007 567.427 160.375C553.068 168.436 537.509 173.28 522.077 178.595C515.283 180.921 508.248 182.974 501.128 184.714C496.725 185.893 495.565 189.744 493.723 192.935C487.778 203.462 482.39 214.177 476.046 224.473C469.054 236.123 461.505 247.586 453.716 258.776C450.281 263.573 445.808 267.637 441.491 271.659C437.677 275.041 432.108 275.016 430.122 272.008C429.187 270.405 428.47 267.731 429.077 266.22C431.933 259.892 436.993 255.502 443.461 252.589C443.691 252.19 444.247 252.379 445.789 252.471Z" fill="#3369A7"/>
<path d="M501.458 197.268C491.023 215.572 480.588 233.876 470.038 252.379C470.794 252.682 471.192 252.913 471.35 252.871C476.851 248.868 482.679 245.452 486.163 238.956C492.757 227.075 500.389 215.928 507.581 204.392C508.387 202.996 509.791 201.946 510.839 200.822C511.238 201.053 511.636 201.283 512.077 201.67C502.134 218.663 492.39 235.77 482.101 253.361C484.418 252.572 485.99 252.15 487.836 251.487C487.044 256.082 479.498 260.633 476.38 258.434C473.945 256.895 472.445 256.96 470.381 258.693C469.019 259.9 467.5 261.15 465.854 261.929C464.953 262.339 463.223 262.802 462.74 262.257C462.015 261.44 461.95 259.94 461.812 258.797C461.686 258.326 462.231 257.842 462.461 257.444C470.866 242.886 479.228 228.172 487.99 213.687C491.371 208.062 495.235 202.981 499.015 197.585C499.36 196.987 500.188 196.934 500.89 196.408C501.174 196.838 501.216 196.995 501.458 197.268Z" fill="#3369A7"/>
<path d="M625.386 222.553C629.446 215.06 639.29 210.905 643.186 214.75C637.42 217.138 631.539 219.725 625.386 222.553Z" fill="#3369A7"/>
<path d="M428.023 262.288C426.765 262.626 425.549 263.12 424.249 263.3C421.491 263.702 418.775 264.261 415.975 264.505C415.146 264.559 414.149 263.983 413.394 263.68C413.969 262.683 414.377 261.057 415.048 261.045C419.348 260.736 423.532 260.626 427.874 260.474C427.886 261.145 428.012 261.617 428.023 262.288Z" fill="#3369A7"/>
</g>
<defs>
<clipPath id="clip0">
<rect width="957.391" height="223.066" fill="white" transform="translate(0.871094 247.791) rotate(-15)"/>
</clipPath>
</defs>
</svg>
