<svg width="113" height="107" viewBox="0 0 113 107" fill="none" xmlns="http://www.w3.org/2000/svg">
<rect x="1.5" y="1.5" width="109.632" height="104" rx="8.5" fill="black" fill-opacity="0.1" stroke="white" stroke-width="3"/>
<path d="M59.1067 48.849C59.1067 49.5891 58.8127 50.2989 58.2894 50.8223C57.766 51.3456 57.0562 51.6396 56.3161 51.6396C55.576 51.6396 54.8662 51.3456 54.3428 50.8223C53.8195 50.2989 53.5255 49.5891 53.5255 48.849C53.5255 48.1089 53.8195 47.3991 54.3428 46.8757C54.8662 46.3524 55.576 46.0583 56.3161 46.0583C57.0562 46.0583 57.766 46.3524 58.2894 46.8757C58.8127 47.3991 59.1067 48.1089 59.1067 48.849Z" fill="white"/>
<path d="M33.9909 51.6395C33.9909 51.1461 34.1869 50.6729 34.5358 50.324C34.8847 49.9751 35.3579 49.7791 35.8513 49.7791H41.4326C41.9261 49.7791 42.3993 49.9751 42.7482 50.324C43.0971 50.6729 43.2931 51.1461 43.2931 51.6395C43.2931 52.1329 43.0971 52.6061 42.7482 52.955C42.3993 53.3039 41.9261 53.4999 41.4326 53.4999H35.8513C35.3579 53.4999 34.8847 53.3039 34.5358 52.955C34.1869 52.6061 33.9909 52.1329 33.9909 51.6395Z" fill="white"/>
<path d="M71.2053 49.7791C70.7119 49.7786 70.2385 49.9741 69.8893 50.3226C69.54 50.6712 69.3435 51.1442 69.343 51.6376C69.3426 52.131 69.5381 52.6044 69.8866 52.9537C70.2352 53.3029 70.7082 53.4994 71.2016 53.4999L76.7829 53.5111C77.2763 53.5121 77.7499 53.317 78.0995 52.9688C78.4491 52.6206 78.6461 52.1478 78.6471 51.6544C78.6481 51.161 78.453 50.6874 78.1048 50.3378C77.7566 49.9882 77.2838 49.7912 76.7904 49.7902L71.2053 49.7791Z" fill="white"/>
<path d="M56.3158 38.6165C47.6276 38.6165 38.9394 39.7178 30.2437 41.9131C29.184 42.1848 28.2452 42.8021 27.5759 43.6675C26.9067 44.5329 26.5453 45.5968 26.5489 46.6907V56.1789C26.5489 62.8877 31.9144 68.3834 38.5933 68.3834H46.0462C47.1739 68.3819 48.288 68.1375 49.3127 67.6669C50.3375 67.1963 51.2488 66.5104 51.9847 65.656L53.9531 63.3825C54.2444 63.0404 54.6065 62.7656 55.0145 62.5772C55.4224 62.3887 55.8664 62.2911 56.3158 62.2911C56.7652 62.2911 57.2092 62.3887 57.6171 62.5772C58.0251 62.7656 58.3872 63.0404 58.6786 63.3825L60.6506 65.656C61.3861 66.5099 62.2969 67.1955 63.3209 67.6661C64.345 68.1368 65.4584 68.3814 66.5854 68.3834H74.0383C80.7172 68.3834 86.0827 62.8914 86.0827 56.1789V46.6907C86.0827 44.4508 84.5795 42.4676 82.3879 41.9131C73.8674 39.7379 65.1096 38.6305 56.3158 38.6165ZM31.1553 45.5224C39.5608 43.3978 47.9439 42.3373 56.3158 42.3373C64.6878 42.3373 73.0709 43.3978 81.4763 45.5224C81.9786 45.6489 82.3619 46.1177 82.3619 46.6907V56.1789C82.3619 60.8933 78.6075 64.6625 74.042 64.6625H66.5854C65.3947 64.6625 64.2561 64.1416 63.4599 63.2225L61.4878 60.9454C60.8472 60.1992 60.0528 59.6003 59.1592 59.1897C58.2655 58.7791 57.2937 58.5666 56.3102 58.5666C55.3268 58.5666 54.3549 58.7791 53.4613 59.1897C52.5676 59.6003 51.7733 60.1992 51.1326 60.9454L49.168 63.2225C48.7812 63.6732 48.3018 64.035 47.7624 64.2836C47.223 64.5321 46.6364 64.6613 46.0425 64.6625H38.5933C34.0241 64.6625 30.2698 60.8896 30.2698 56.1789V46.6907C30.2698 46.1177 30.653 45.6489 31.1553 45.5224Z" fill="white"/>
</svg>
