<svg width="571" height="126" viewBox="0 0 571 126" fill="none" xmlns="http://www.w3.org/2000/svg">
<path d="M73.276 87.544C70.964 87.544 69.3093 86.4107 68.312 84.144L50.564 44.296C49.8387 42.5733 49.8613 41.1907 50.632 40.148C51.448 39.06 52.6267 38.516 54.168 38.516C55.4827 38.516 56.4573 38.8107 57.092 39.4C57.772 39.944 58.3387 40.7827 58.792 41.916L73.412 75.848L88.032 41.848C88.5307 40.76 89.12 39.944 89.8 39.4C90.48 38.8107 91.432 38.516 92.656 38.516C94.1067 38.516 95.1947 39.06 95.92 40.148C96.6907 41.236 96.6907 42.6187 95.92 44.296L78.172 84.144C77.6733 85.2773 77.0387 86.1387 76.268 86.728C75.5427 87.272 74.5453 87.544 73.276 87.544ZM110.465 87.544C107.563 87.544 106.113 86.048 106.113 83.056V43.48C106.113 40.5333 107.586 39.06 110.533 39.06H126.921C132.179 39.06 136.237 40.3293 139.093 42.868C141.949 45.3613 143.377 48.8747 143.377 53.408C143.377 56.9893 142.447 59.9587 140.589 62.316C138.73 64.628 136.055 66.192 132.565 67.008C134.877 67.7333 136.781 69.4787 138.277 72.244L143.377 81.696C144.147 83.1467 144.283 84.484 143.785 85.708C143.331 86.932 142.175 87.544 140.317 87.544C139.093 87.544 138.095 87.2947 137.325 86.796C136.554 86.252 135.874 85.436 135.285 84.348L128.417 71.7C127.601 70.1587 126.626 69.1387 125.493 68.64C124.405 68.096 122.999 67.824 121.277 67.824H114.817V83.056C114.817 86.048 113.366 87.544 110.465 87.544ZM114.817 61.364H125.425C131.771 61.364 134.945 58.78 134.945 53.612C134.945 48.4893 131.771 45.928 125.425 45.928H114.817V61.364Z" fill="#446B98"/>
<path d="M199.768 45.2846C199.45 44.8748 199.086 44.5104 198.721 44.1461C195.673 41.186 191.304 39.6831 185.798 39.6831H169.916C166.366 39.6831 164.228 41.7324 164 45.2846C164 45.4668 164 45.6945 164 45.9222V86.1803C164 86.408 164 86.5901 164 86.8178H167.322C167.322 86.6357 167.276 86.408 167.276 86.1803V45.9222C167.276 45.6945 167.276 45.5123 167.322 45.2846C167.458 43.7362 168.187 43.1442 169.916 43.1442H185.798C189.393 43.1442 192.351 43.8729 194.671 45.2846C195.354 45.6945 195.946 46.1499 196.492 46.6964C198.904 49.0645 200.132 52.2979 200.132 56.6243C200.132 60.9507 198.949 64.2296 196.492 66.5977C194.034 68.9658 190.439 70.1954 185.798 70.1954H179.017V73.6566H185.798C191.304 73.6566 195.627 72.1537 198.721 69.148C201.861 66.1423 203.409 61.907 203.409 56.6698C203.409 52.0247 202.18 48.1992 199.768 45.2846Z" fill="url(#paint0_linear)"/>
<path d="M195.263 56.6698C195.263 63.1366 191.44 66.6888 184.523 66.6888H179.063V63.2277H184.523C184.842 63.2277 185.161 63.2277 185.479 63.1822C191.213 62.8634 191.987 59.5389 191.987 56.6243C191.987 53.7097 191.213 50.4307 185.388 50.1575C185.115 50.1575 184.842 50.1575 184.523 50.1575H175.741V86.2258C175.741 86.4535 175.741 86.6357 175.741 86.8634H172.419C172.419 86.6812 172.464 86.4535 172.464 86.2258V48.4269C172.464 47.4706 173.192 46.6964 174.102 46.6964H184.523C184.842 46.6964 185.161 46.6964 185.434 46.7419C193.943 47.1063 195.263 53.0721 195.263 56.6698Z" fill="url(#paint1_linear)"/>
<path d="M216.333 44.9658C216.651 44.556 217.015 44.1917 217.379 43.8273C220.428 40.8672 224.797 39.3643 230.303 39.3643H246.185C249.734 39.3643 251.873 41.4137 252.101 44.9658C252.101 45.148 252.101 45.3757 252.101 45.6034V85.8615C252.101 86.0892 252.101 86.2714 252.101 86.4991H248.779C248.779 86.3169 248.824 86.0892 248.824 85.8615V45.5579C248.824 45.3302 248.824 45.148 248.779 44.9203C248.642 43.3719 247.914 42.7799 246.185 42.7799H230.303C226.708 42.7799 223.75 43.5085 221.429 44.9203C220.747 45.3302 220.155 45.7856 219.609 46.3321C217.197 48.7002 215.968 51.9336 215.968 56.26C215.968 60.5863 217.152 63.8653 219.609 66.2334C222.066 68.6015 225.661 69.8311 230.303 69.8311H237.084V73.2922H230.303C224.797 73.2922 220.474 71.7894 217.379 68.7837C214.285 65.778 212.692 61.5427 212.692 56.26C212.692 51.6603 213.921 47.8349 216.333 44.9658Z" fill="url(#paint2_linear)"/>
<path d="M220.883 56.3055C220.883 62.7723 224.706 66.3245 231.623 66.3245H237.084V62.8634H231.623C231.304 62.8634 230.986 62.8634 230.667 62.8178C224.933 62.4991 224.16 59.1746 224.16 56.26C224.16 53.3454 224.933 50.0664 230.758 49.7932C231.031 49.7932 231.304 49.7932 231.623 49.7932H240.406V85.8615C240.406 86.0892 240.406 86.2713 240.406 86.4991H243.727C243.727 86.3169 243.682 86.0892 243.682 85.8615V48.0626C243.682 47.1063 242.954 46.3321 242.044 46.3321H231.623C231.304 46.3321 230.986 46.3321 230.713 46.3776C222.203 46.7875 220.883 52.7078 220.883 56.3055Z" fill="url(#paint3_linear)"/>
<path d="M230.303 76.0702L224.888 86.4991H221.156L226.617 76.0247C227.209 76.0702 227.846 76.0702 228.483 76.0702H230.303Z" fill="url(#paint4_linear)"/>
<path d="M221.475 75.0683C221.293 75.3871 221.156 75.6603 221.156 75.6603L216.469 84.6774C216.105 85.3605 215.968 85.9526 215.968 86.4991H212.647C212.601 85.4061 212.92 84.2676 213.511 83.038L218.426 73.7021C219.336 74.2486 220.383 74.704 221.475 75.0683Z" fill="url(#paint5_linear)"/>
<path d="M291.737 66.6433C291.691 66.5977 291.691 66.5977 291.646 66.5522C290.235 67.1442 288.961 67.5996 287.914 67.9184C290.19 68.7837 290.554 70.3776 290.554 71.8349C290.554 73.611 289.962 74.7951 288.642 75.6148C287.186 76.5256 284.774 77.0266 281.498 77.0266C277.175 77.0266 273.352 76.1613 270.212 74.4763C270.167 74.4763 270.121 74.4307 270.076 74.4307L268.711 77.2543C272.351 79.167 276.629 80.1233 281.452 80.1233C285.457 80.1233 288.415 79.4858 290.463 78.1651C292.647 76.7989 293.785 74.5674 293.785 71.8349C293.83 70.2865 293.421 68.2372 291.737 66.6433ZM289.735 47.6983C287.914 46.3321 285.229 45.649 281.543 45.649C279.541 45.649 277.493 45.8767 275.446 46.3321C273.398 46.7875 271.486 47.4706 269.757 48.3814C269.393 48.5636 268.893 48.7913 268.438 48.7913L269.803 51.6603C270.303 51.5237 270.804 51.296 271.35 51.0228C272.806 50.2941 274.444 49.7021 276.174 49.2922C277.948 48.8824 279.723 48.7002 281.498 48.7002C284.365 48.7002 286.413 49.1556 287.641 50.0664C288.779 50.9317 289.28 51.9791 289.28 53.4364C289.28 55.4858 288.506 57.8994 282.272 57.8994H275.127C275.081 57.8994 275.036 57.8994 274.945 57.8994V60.9962C274.99 60.9962 275.036 60.9962 275.127 60.9962H282.272C291.236 60.9962 292.556 56.26 292.556 53.482C292.647 51.0683 291.646 49.1556 289.735 47.6983ZM299.245 58.6736C299.109 58.9013 298.972 59.0835 298.836 59.3112C299.109 58.9469 299.382 58.5825 299.564 58.1727C299.473 58.3548 299.336 58.537 299.245 58.6736ZM299.564 64.9127C299.018 64.2296 298.381 63.6376 297.653 63.0911C296.743 63.7742 295.787 64.4118 294.831 64.9583C295.65 65.4592 296.379 66.0968 296.97 66.7799C298.199 68.2827 298.836 70.1044 298.836 72.4725C298.836 75.888 297.562 78.5294 294.922 80.5787C294.422 80.9431 293.876 81.3074 293.284 81.6262C290.645 83.038 286.868 83.7211 282.135 83.7211C279.086 83.7211 276.219 83.4023 273.625 82.7647C272.351 82.4459 271.213 82.0816 270.076 81.6262C269.075 81.2163 268.119 80.7609 267.254 80.26L265.889 83.129C267.891 84.2676 270.212 85.1328 272.715 85.7704C275.582 86.4991 278.722 86.8178 282.089 86.8178C288.688 86.8178 293.694 85.5427 296.97 82.9924C297.516 82.5825 298.017 82.1271 298.472 81.6717C300.838 79.2581 302.067 76.1613 302.067 72.518C302.112 69.4668 301.248 66.962 299.564 64.9127Z" fill="url(#paint6_linear)"/>
<path d="M301.02 52.4345C301.02 54.575 300.52 56.4877 299.564 58.1727C299.473 58.3548 299.336 58.4915 299.245 58.6736C299.109 58.9013 298.972 59.0835 298.836 59.3112C298.836 59.3567 298.79 59.3567 298.79 59.4023C294.149 65.8235 286.14 67.0076 284.001 67.2353C283.955 67.2353 283.91 67.2353 283.864 67.2353C283.819 67.2353 283.773 67.2353 283.728 67.2353C283.591 67.2353 283.5 67.2353 283.5 67.2353H275.264C275.218 67.2353 275.173 67.2353 275.081 67.2353V64.1385C275.127 64.1385 275.173 64.1385 275.264 64.1385H283.5C283.5 64.1385 283.5 64.1385 283.546 64.1385C283.864 64.1385 287.232 64.093 290.599 62.4991C292.647 61.5427 294.695 59.9943 296.106 57.5806C297.198 56.1689 297.744 54.4839 297.744 52.4345C297.744 49.3378 296.561 46.9241 294.103 45.0114C293.921 44.8748 293.739 44.7381 293.512 44.6015C291.009 42.9165 287.323 42.0968 282.454 42.0968C279.86 42.0968 277.311 42.37 274.808 42.962C273.034 43.3719 271.35 43.9184 269.803 44.6471C269.257 44.9203 268.711 45.1935 268.164 45.4668C267.755 45.74 267.436 46.0133 267.254 46.3321L265.798 43.2808C266.026 43.1442 266.208 42.962 266.435 42.8254C268.711 41.5503 271.259 40.5484 274.035 39.9564C276.765 39.3188 279.587 39 282.454 39C288.46 39 293.057 40.2296 296.151 42.6433C296.925 43.2353 297.607 43.9184 298.199 44.6015C300.065 46.7875 301.02 49.4288 301.02 52.4345Z" fill="url(#paint7_linear)"/>
<path d="M336.242 68.3283H328.734L327.323 71.8349H337.653L336.242 68.3283Z" fill="url(#paint8_linear)"/>
<path d="M356.402 84.0398L339.519 39.6831H335.878L353.353 85.6338C353.535 86.0892 353.626 86.4535 353.717 86.7723H357.039C356.993 85.9526 356.766 85.0417 356.402 84.0398Z" fill="url(#paint9_linear)"/>
<path d="M325.639 39.6831L308.847 83.9943C308.438 85.0417 308.256 85.9526 308.165 86.8178H311.487C311.532 86.4991 311.669 86.1347 311.851 85.6793L329.234 39.7287H325.639V39.6831Z" fill="url(#paint10_linear)"/>
<path d="M339.155 75.2049H326.003L324.274 78.4383H340.929L339.155 75.2049Z" fill="url(#paint11_linear)"/>
<path d="M348.939 86.8178H345.344L343.023 80.3966L342.386 78.6205L341.43 75.9336L338.063 66.6888L337.562 65.2315L332.556 51.0683L327.004 66.6888L326.595 67.9184L325.639 70.6053L325.184 71.8349L323.728 75.9336L323.227 77.2543L322.317 79.8501L321.862 81.1708L319.86 86.8178H316.265C316.356 86.6357 316.447 86.408 316.538 86.1803L319.587 77.6186L319.769 77.0721L331.009 45.4668C331.282 44.7381 331.874 44.2827 332.511 44.2827H332.647C333.33 44.2827 333.921 44.7381 334.149 45.4668L346.026 78.7116L348.757 86.2258C348.802 86.408 348.848 86.6357 348.939 86.8178Z" fill="url(#paint12_linear)"/>
<path d="M398.495 64.9127H382.022V68.3283H398.495V64.9127Z" fill="url(#paint13_linear)"/>
<path d="M412.238 39.6831H408.916V86.2714C408.916 86.4991 408.916 86.7723 408.871 87H412.193C412.193 86.7723 412.193 86.5446 412.193 86.2714V39.8653C412.284 39.8197 412.284 39.7742 412.238 39.6831Z" fill="url(#paint14_linear)"/>
<path d="M379.792 64.9127V67.0076V60.4042V64.9127Z" fill="url(#paint15_linear)"/>
<path d="M398.495 56.9886H382.022V60.4497H398.495V56.9886Z" fill="url(#paint16_linear)"/>
<path d="M371.328 86.2714V39.6831H368.006C368.006 39.7287 368.006 39.7742 368.006 39.8653V86.2714C368.006 86.4991 368.006 86.7723 368.006 87H371.328C371.328 86.7723 371.328 86.4991 371.328 86.2714Z" fill="url(#paint17_linear)"/>
<path d="M403.82 86.9545H400.498C400.498 86.7268 400.498 86.4991 400.498 86.2258V39.8653C400.498 39.8197 400.498 39.7742 400.498 39.6831H403.82V86.2714C403.82 86.4991 403.82 86.7723 403.82 86.9545Z" fill="url(#paint18_linear)"/>
<path d="M379.792 39.8653V86.2714C379.792 86.4991 379.792 86.7723 379.792 87H376.47C376.47 86.7723 376.516 86.5446 376.516 86.2714V39.6831H379.838C379.792 39.7742 379.792 39.8197 379.792 39.8653Z" fill="url(#paint19_linear)"/>
<path d="M453.467 73.8843C452.512 71.425 451.374 69.5123 450.054 68.1461C448.871 69.1025 447.733 69.7856 446.823 70.241C446.96 70.3321 447.096 70.4232 447.233 70.5598C448.416 71.5161 449.508 73.2011 450.418 75.5693L454.832 86.8634H458.473L453.467 73.8843ZM453.467 73.8843C452.512 71.425 451.374 69.5123 450.054 68.1461C448.871 69.1025 447.733 69.7856 446.823 70.241C446.96 70.3321 447.096 70.4232 447.233 70.5598C448.416 71.5161 449.508 73.2011 450.418 75.5693L454.832 86.8634H458.473L453.467 73.8843ZM453.467 73.8843C452.512 71.425 451.374 69.5123 450.054 68.1461C448.871 69.1025 447.733 69.7856 446.823 70.241C446.96 70.3321 447.096 70.4232 447.233 70.5598C448.416 71.5161 449.508 73.2011 450.418 75.5693L454.832 86.8634H458.473L453.467 73.8843ZM429.849 86.1347V39.6831H426.573V86.0892C426.573 86.3169 426.573 86.5446 426.573 86.7723H429.895C429.849 86.5901 429.849 86.3624 429.849 86.1347ZM451.374 39.6831L442.318 56.8065H438.268V39.6831H434.991V58.7647C434.991 59.8577 435.72 60.723 436.63 60.723H443.228C443.774 60.723 444.32 60.3586 444.639 59.8121L455.287 39.6831H451.374ZM466.209 83.2657L460.794 70.0588C459.656 67.3264 458.382 65.0038 456.926 63.1822C456.471 62.6357 456.016 62.0892 455.56 61.6338C454.923 62.7723 454.195 63.8197 453.513 64.685C453.877 65.0493 454.195 65.4592 454.559 65.8691C455.788 67.4175 456.88 69.4213 457.881 71.7894L463.297 84.9962C463.615 85.6793 463.752 86.2713 463.752 86.7723H467.074C466.983 85.7249 466.71 84.5408 466.209 83.2657ZM453.467 73.8843C452.512 71.425 451.374 69.5123 450.054 68.1461C448.871 69.1025 447.733 69.7856 446.823 70.241C446.96 70.3321 447.096 70.4232 447.233 70.5598C448.416 71.5161 449.508 73.2011 450.418 75.5693L454.832 86.8634H458.473L453.467 73.8843Z" fill="url(#paint20_linear)"/>
<path d="M463.797 39.6831C463.706 40.7306 463.342 41.8691 462.705 42.962L453.422 59.8121C452.785 60.9962 452.056 62.0436 451.374 62.9545C450.236 64.4573 449.008 65.5958 447.87 66.4611C445.048 68.6471 442.682 69.148 442.682 69.148H438.268V86.1347C438.268 86.3624 438.268 86.5901 438.268 86.8178H434.946C434.946 86.5901 434.991 86.3624 434.991 86.1347V67.1898C434.991 66.0968 435.72 65.2315 436.63 65.2315H442.682C442.682 65.2315 442.682 65.2315 442.728 65.2315C443.183 65.186 446.732 64.8216 449.69 59.5389L459.975 40.8216C460.202 40.4118 460.339 40.0474 460.43 39.6831H463.797Z" fill="url(#paint21_linear)"/>
<path d="M274.808 67.2808V67.2353H275.264L274.808 67.2808Z" fill="url(#paint22_linear)"/>
<path d="M501.158 68.3283H493.604L492.193 71.8349H502.569L501.158 68.3283Z" fill="url(#paint23_linear)"/>
<path d="M521.317 84.0398L504.434 39.6831H500.794L518.314 85.6793C518.496 86.1347 518.587 86.4991 518.678 86.8178H522C521.909 85.9526 521.681 85.0417 521.317 84.0398Z" fill="url(#paint24_linear)"/>
<path d="M490.509 39.6831L473.718 84.0398C473.308 85.0873 473.126 85.9981 473.035 86.8634H476.357C476.402 86.5446 476.539 86.1803 476.721 85.7249L494.104 39.7742H490.509V39.6831Z" fill="url(#paint25_linear)"/>
<path d="M504.07 75.2049H490.919L489.144 78.4383H505.8L504.07 75.2049Z" fill="url(#paint26_linear)"/>
<path d="M513.854 86.8178H510.259L507.938 80.3966L507.301 78.6205L506.346 75.9336L502.978 66.6888L502.478 65.2315L497.472 51.0683L491.92 66.6888L491.511 67.9184L490.555 70.6053L490.1 71.8349L488.644 75.9336L488.143 77.2543L487.233 79.8501L486.778 81.1708L484.776 86.8178H481.181C481.272 86.6357 481.363 86.408 481.454 86.1803L484.503 77.6186L484.685 77.0721L495.925 45.4668C496.198 44.7381 496.789 44.2827 497.426 44.2827H497.563C498.246 44.2827 498.837 44.7381 499.065 45.4668L510.942 78.7116L513.672 86.2258C513.672 86.408 513.763 86.6357 513.854 86.8178Z" fill="url(#paint27_linear)"/>
<path d="M29 0V2.49124H2.49124V29H0V0H29Z" fill="url(#paint28_linear)"/>
<path d="M29.0001 5.79272V8.27187H8.272V29H5.79285V5.79272H29.0001Z" fill="url(#paint29_linear)"/>
<path d="M542 126L542 123.509L568.509 123.509L568.509 97L571 97L571 126L542 126Z" fill="url(#paint30_linear)"/>
<path d="M542 120.207L542 117.728L562.728 117.728L562.728 97L565.207 97L565.207 120.207L542 120.207Z" fill="url(#paint31_linear)"/>
<defs>
<linearGradient id="paint0_linear" x1="343" y1="39" x2="343" y2="100.48" gradientUnits="userSpaceOnUse">
<stop offset="0.145833" stop-color="#446B98"/>
<stop offset="1" stop-color="#61B893"/>
</linearGradient>
<linearGradient id="paint1_linear" x1="343" y1="39" x2="343" y2="100.48" gradientUnits="userSpaceOnUse">
<stop offset="0.145833" stop-color="#446B98"/>
<stop offset="1" stop-color="#61B893"/>
</linearGradient>
<linearGradient id="paint2_linear" x1="343" y1="39" x2="343" y2="100.48" gradientUnits="userSpaceOnUse">
<stop offset="0.145833" stop-color="#446B98"/>
<stop offset="1" stop-color="#61B893"/>
</linearGradient>
<linearGradient id="paint3_linear" x1="343" y1="39" x2="343" y2="100.48" gradientUnits="userSpaceOnUse">
<stop offset="0.145833" stop-color="#446B98"/>
<stop offset="1" stop-color="#61B893"/>
</linearGradient>
<linearGradient id="paint4_linear" x1="343" y1="39" x2="343" y2="100.48" gradientUnits="userSpaceOnUse">
<stop offset="0.145833" stop-color="#446B98"/>
<stop offset="1" stop-color="#61B893"/>
</linearGradient>
<linearGradient id="paint5_linear" x1="343" y1="39" x2="343" y2="100.48" gradientUnits="userSpaceOnUse">
<stop offset="0.145833" stop-color="#446B98"/>
<stop offset="1" stop-color="#61B893"/>
</linearGradient>
<linearGradient id="paint6_linear" x1="343" y1="39" x2="343" y2="100.48" gradientUnits="userSpaceOnUse">
<stop offset="0.145833" stop-color="#446B98"/>
<stop offset="1" stop-color="#61B893"/>
</linearGradient>
<linearGradient id="paint7_linear" x1="343" y1="39" x2="343" y2="100.48" gradientUnits="userSpaceOnUse">
<stop offset="0.145833" stop-color="#446B98"/>
<stop offset="1" stop-color="#61B893"/>
</linearGradient>
<linearGradient id="paint8_linear" x1="343" y1="39" x2="343" y2="100.48" gradientUnits="userSpaceOnUse">
<stop offset="0.145833" stop-color="#446B98"/>
<stop offset="1" stop-color="#61B893"/>
</linearGradient>
<linearGradient id="paint9_linear" x1="343" y1="39" x2="343" y2="100.48" gradientUnits="userSpaceOnUse">
<stop offset="0.145833" stop-color="#446B98"/>
<stop offset="1" stop-color="#61B893"/>
</linearGradient>
<linearGradient id="paint10_linear" x1="343" y1="39" x2="343" y2="100.48" gradientUnits="userSpaceOnUse">
<stop offset="0.145833" stop-color="#446B98"/>
<stop offset="1" stop-color="#61B893"/>
</linearGradient>
<linearGradient id="paint11_linear" x1="343" y1="39" x2="343" y2="100.48" gradientUnits="userSpaceOnUse">
<stop offset="0.145833" stop-color="#446B98"/>
<stop offset="1" stop-color="#61B893"/>
</linearGradient>
<linearGradient id="paint12_linear" x1="343" y1="39" x2="343" y2="100.48" gradientUnits="userSpaceOnUse">
<stop offset="0.145833" stop-color="#446B98"/>
<stop offset="1" stop-color="#61B893"/>
</linearGradient>
<linearGradient id="paint13_linear" x1="343" y1="39" x2="343" y2="100.48" gradientUnits="userSpaceOnUse">
<stop offset="0.145833" stop-color="#446B98"/>
<stop offset="1" stop-color="#61B893"/>
</linearGradient>
<linearGradient id="paint14_linear" x1="343" y1="39" x2="343" y2="100.48" gradientUnits="userSpaceOnUse">
<stop offset="0.145833" stop-color="#446B98"/>
<stop offset="1" stop-color="#61B893"/>
</linearGradient>
<linearGradient id="paint15_linear" x1="343" y1="39" x2="343" y2="100.48" gradientUnits="userSpaceOnUse">
<stop offset="0.145833" stop-color="#446B98"/>
<stop offset="1" stop-color="#61B893"/>
</linearGradient>
<linearGradient id="paint16_linear" x1="343" y1="39" x2="343" y2="100.48" gradientUnits="userSpaceOnUse">
<stop offset="0.145833" stop-color="#446B98"/>
<stop offset="1" stop-color="#61B893"/>
</linearGradient>
<linearGradient id="paint17_linear" x1="343" y1="39" x2="343" y2="100.48" gradientUnits="userSpaceOnUse">
<stop offset="0.145833" stop-color="#446B98"/>
<stop offset="1" stop-color="#61B893"/>
</linearGradient>
<linearGradient id="paint18_linear" x1="343" y1="39" x2="343" y2="100.48" gradientUnits="userSpaceOnUse">
<stop offset="0.145833" stop-color="#446B98"/>
<stop offset="1" stop-color="#61B893"/>
</linearGradient>
<linearGradient id="paint19_linear" x1="343" y1="39" x2="343" y2="100.48" gradientUnits="userSpaceOnUse">
<stop offset="0.145833" stop-color="#446B98"/>
<stop offset="1" stop-color="#61B893"/>
</linearGradient>
<linearGradient id="paint20_linear" x1="343" y1="39" x2="343" y2="100.48" gradientUnits="userSpaceOnUse">
<stop offset="0.145833" stop-color="#446B98"/>
<stop offset="1" stop-color="#61B893"/>
</linearGradient>
<linearGradient id="paint21_linear" x1="343" y1="39" x2="343" y2="100.48" gradientUnits="userSpaceOnUse">
<stop offset="0.145833" stop-color="#446B98"/>
<stop offset="1" stop-color="#61B893"/>
</linearGradient>
<linearGradient id="paint22_linear" x1="343" y1="39" x2="343" y2="100.48" gradientUnits="userSpaceOnUse">
<stop offset="0.145833" stop-color="#446B98"/>
<stop offset="1" stop-color="#61B893"/>
</linearGradient>
<linearGradient id="paint23_linear" x1="343" y1="39" x2="343" y2="100.48" gradientUnits="userSpaceOnUse">
<stop offset="0.145833" stop-color="#446B98"/>
<stop offset="1" stop-color="#61B893"/>
</linearGradient>
<linearGradient id="paint24_linear" x1="343" y1="39" x2="343" y2="100.48" gradientUnits="userSpaceOnUse">
<stop offset="0.145833" stop-color="#446B98"/>
<stop offset="1" stop-color="#61B893"/>
</linearGradient>
<linearGradient id="paint25_linear" x1="343" y1="39" x2="343" y2="100.48" gradientUnits="userSpaceOnUse">
<stop offset="0.145833" stop-color="#446B98"/>
<stop offset="1" stop-color="#61B893"/>
</linearGradient>
<linearGradient id="paint26_linear" x1="343" y1="39" x2="343" y2="100.48" gradientUnits="userSpaceOnUse">
<stop offset="0.145833" stop-color="#446B98"/>
<stop offset="1" stop-color="#61B893"/>
</linearGradient>
<linearGradient id="paint27_linear" x1="343" y1="39" x2="343" y2="100.48" gradientUnits="userSpaceOnUse">
<stop offset="0.145833" stop-color="#446B98"/>
<stop offset="1" stop-color="#61B893"/>
</linearGradient>
<linearGradient id="paint28_linear" x1="14.5" y1="0" x2="14.5" y2="29" gradientUnits="userSpaceOnUse">
<stop stop-color="#446B98"/>
<stop offset="1" stop-color="#61B893"/>
</linearGradient>
<linearGradient id="paint29_linear" x1="17.3965" y1="5.79272" x2="17.3965" y2="29" gradientUnits="userSpaceOnUse">
<stop stop-color="#446B98"/>
<stop offset="1" stop-color="#61B893"/>
</linearGradient>
<linearGradient id="paint30_linear" x1="556.5" y1="126" x2="556.5" y2="97" gradientUnits="userSpaceOnUse">
<stop stop-color="#446B98"/>
<stop offset="1" stop-color="#446B98"/>
</linearGradient>
<linearGradient id="paint31_linear" x1="553.604" y1="120.207" x2="553.604" y2="97" gradientUnits="userSpaceOnUse">
<stop stop-color="#446B98"/>
<stop offset="1" stop-color="#446B98"/>
</linearGradient>
</defs>
</svg>
