<svg width="240" height="29" viewBox="0 0 240 29" fill="none" xmlns="http://www.w3.org/2000/svg">
<path d="M4.71958 1.07812V12.2739H5.46032L13.4815 1.07812H19.2169L9.75661 12.8453C13.545 13.5437 15.1323 16.0199 16.3386 19.3003C17.3122 22.0517 18.0741 24.676 19.2804 27.1522H14.1587C13.2275 25.3744 12.6561 23.1945 12 21.2263C10.963 18.0517 9.56614 15.766 5.79894 15.766H4.71958V27.1522H0V1.07812H4.71958Z" fill="#BDBDBD"/>
<path d="M28.2964 1.07812L32.6985 11.258C33.3969 12.9511 33.9684 14.5173 34.561 16.0623H34.6668C35.0477 14.8559 35.5134 13.2263 36.1694 11.1945L39.5345 1.09929H44.5716L39.4287 14.221C37.926 18.0093 36.2964 21.967 34.3917 24.4009C32.6985 26.5384 30.6456 27.7236 27.9366 27.7236C26.7726 27.7236 26.0742 27.6178 25.5028 27.385L25.8414 23.5543C26.2647 23.6601 26.7726 23.7025 27.5134 23.7025C29.7144 23.7025 31.0689 21.84 31.725 20.3797C31.9578 19.8718 31.8731 19.5332 31.6403 18.9829L22.8996 1.09929H28.2964V1.07812Z" fill="#BDBDBD"/>
<path d="M65.9473 1.07812V27.1734H61.1854V4.99347H54.0531V11.9564C54.0531 18.1786 53.4817 23.8718 49.6721 26.2845C48.5081 26.9406 46.8362 27.5331 45.0372 27.5331L44.4235 23.7025C45.6298 23.5543 46.6668 22.9617 47.2806 22.3056C49.1007 20.4855 49.4182 16.3374 49.4182 12.3162V1.09929H65.9473V1.07812Z" fill="#BDBDBD"/>
<path d="M77.143 1.07812V10.4749C77.9473 10.3268 79.3441 10.2421 80.36 10.2421C85.8203 10.2421 90.5822 12.803 90.5822 18.5596C90.5822 21.0358 89.778 22.8982 88.5293 24.2104C86.1589 26.6443 82.1377 27.4273 78.2647 27.4273C75.6404 27.4273 73.651 27.2369 72.4235 27.0887V1.07812H77.143ZM77.143 23.6813C77.8414 23.7871 78.6034 23.8294 79.5769 23.8294C82.8362 23.8294 85.5663 22.2421 85.5663 18.7924C85.5663 15.3003 82.815 13.9458 79.5981 13.9458C78.7515 13.9458 77.9049 14.0305 77.1219 14.094V23.6813H77.143Z" fill="#BDBDBD"/>
<path d="M97.5024 5.05696H90.0739V1.07812H109.778V5.05696H102.264V27.1522H97.5024V5.05696Z" fill="#BDBDBD"/>
<path d="M116.995 1.07812L121.397 11.258C122.095 12.9511 122.667 14.5173 123.259 16.0623H123.365C123.746 14.8559 124.212 13.2263 124.868 11.1945L128.233 1.09929H133.27L128.127 14.221C126.624 18.0093 124.995 21.967 123.09 24.4009C121.397 26.5384 119.344 27.7236 116.635 27.7236C115.471 27.7236 114.773 27.6178 114.201 27.385L114.54 23.5543C114.963 23.6601 115.471 23.7025 116.212 23.7025C118.413 23.7025 119.767 21.84 120.423 20.3797C120.656 19.8718 120.572 19.5332 120.339 18.9829L111.598 1.09929H116.995V1.07812Z" fill="#BDBDBD"/>
<path d="M136.825 1.41843C138.561 1.10097 140.931 0.868164 144.106 0.868164C147.598 0.868164 150.095 1.6089 151.767 3.00573C153.312 4.27557 154.328 6.32848 154.328 8.78351C154.328 11.2597 153.545 13.2703 152.127 14.6671C150.201 16.5719 147.259 17.5031 143.873 17.5031C142.984 17.5031 142.201 17.4608 141.545 17.3126V27.175H136.825V1.41843ZM141.545 13.5454C142.159 13.7359 142.899 13.7782 143.873 13.7782C147.429 13.7782 149.608 12.0004 149.608 8.97398C149.608 6.07451 147.598 4.57187 144.296 4.57187C142.984 4.57187 142.053 4.67769 141.545 4.80467V13.5454Z" fill="#BDBDBD"/>
<path d="M161.905 19.7666L159.662 27.1529H154.752L163.111 1.05762H169.185L177.672 27.1529H172.508L170.138 19.7666H161.905ZM169.376 16.1687L167.323 9.73486C166.815 8.14756 166.392 6.36979 166.011 4.86714H165.926C165.545 6.36979 165.122 8.18989 164.678 9.73486L162.667 16.1687H169.376Z" fill="#BDBDBD"/>
<path d="M181.481 24.5281C181.481 22.7503 182.73 21.4805 184.423 21.4805C186.159 21.4805 187.365 22.7291 187.365 24.5281C187.365 26.2635 186.201 27.5757 184.381 27.5757C182.688 27.5969 181.481 26.2847 181.481 24.5281Z" fill="#BDBDBD"/>
<path d="M192.36 1.41843C194.095 1.10097 196.466 0.868164 199.64 0.868164C203.132 0.868164 205.63 1.6089 207.302 3.00573C208.847 4.27557 209.862 6.32848 209.862 8.78351C209.862 11.2597 209.079 13.2703 207.661 14.6671C205.735 16.5719 202.794 17.5031 199.407 17.5031C198.518 17.5031 197.735 17.4608 197.079 17.3126V27.175H192.36V1.41843ZM197.079 13.5454C197.693 13.7359 198.434 13.7782 199.407 13.7782C202.963 13.7782 205.143 12.0004 205.143 8.97398C205.143 6.07451 203.132 4.57187 199.831 4.57187C198.518 4.57187 197.587 4.67769 197.079 4.80467V13.5454Z" fill="#BDBDBD"/>
<path d="M228.931 0V2.32804C234.476 2.6455 240 5.92593 240 14.0529C240 22.1799 234.54 25.3968 228.847 25.8201V28.2116H224.36V25.8201C218.794 25.4391 213.291 22.3704 213.291 14.2434C213.291 5.84127 219.407 2.66667 224.444 2.32804V0H228.931ZM224.402 5.60846C221.608 5.8836 218.138 8 218.138 14.1164C218.138 19.6825 221.397 22.1376 224.402 22.4762V5.60846ZM228.91 22.4762C231.852 22.2011 235.175 20 235.175 14.0317C235.175 8 231.958 5.86243 228.91 5.5873V22.4762Z" fill="#BDBDBD"/>
</svg>
