<svg width="240" height="66" viewBox="0 0 240 66" fill="none" xmlns="http://www.w3.org/2000/svg">
<g clip-path="url(#clip0)">
<rect width="240" height="66" fill="white"/>
<path d="M56.842 26.539L58.8932 30.6843H64.8875C63.1335 27.5561 61.6051 24.6889 60.2982 22.1196C63.8433 16.932 65.5721 11.967 65.5721 7.75813C65.5721 2.79306 62.9358 0.050293 57.5519 0.050293C52.1679 0.050293 49.5051 2.74406 49.5051 7.75813C49.6014 10.6911 50.3626 13.5642 51.7314 16.1613L54.5667 21.909C52.2289 24.7273 49.8036 26.2159 47.7153 26.2159C43.7855 26.2159 41.672 23.6334 41.672 18.8669V0.844915H36.4233V18.3968C36.4233 26.7628 40.3784 31.2816 47.714 31.2816C50.8358 31.2789 53.9948 29.6301 56.842 26.539ZM57.5505 5.17693C59.3045 5.17693 60.2372 6.19537 60.2372 8.05611C60.1877 11.2154 59.3729 14.3157 57.8623 17.0923C55.8855 12.7722 54.8532 9.64403 54.8532 8.05611C54.7972 7.68112 54.8268 7.29834 54.9398 6.93637C55.0527 6.57439 55.2462 6.24258 55.5057 5.96572C55.7652 5.68887 56.084 5.47412 56.4383 5.33753C56.7926 5.20094 57.1733 5.14604 57.5519 5.17693H57.5505Z" fill="#D1D1D1"/>
<path d="M24.4228 0.844971C22.2206 6.90109 19.5773 12.7882 16.5141 18.4591C14.1964 17.218 11.6082 16.5658 8.97813 16.56C4.64363 16.609 0 19.3067 0 24.2678C0 28.674 3.51854 31.4194 7.79732 31.4194C17.8581 31.4194 21.8609 20.0113 27.1679 6.17159H27.355V30.6857H32.6023L32.4935 0.897945L24.4228 0.844971ZM8.02021 26.3788C6.67754 26.3788 5.29639 25.6345 5.29639 24.2691C5.29639 22.9037 7.33561 21.5753 9.08957 21.5753C10.7427 21.598 12.3651 22.0241 13.8155 22.8163C13.1666 23.7945 12.312 24.62 11.3112 25.2352C10.3104 25.8504 9.1874 26.2407 8.02021 26.3788Z" fill="#D1D1D1"/>
<path d="M133.555 31.3174C135.518 31.2925 137.454 30.8487 139.232 30.0159C141.01 29.1831 142.589 27.9806 143.864 26.4888L145.704 29.9401C142.956 34.2973 141.091 37.9221 141.091 40.6026C141.041 41.671 141.215 42.738 141.602 43.7355C141.988 44.7329 142.579 45.639 143.336 46.3959C144.093 47.1528 145 47.7439 145.998 48.1315C146.997 48.519 148.066 48.6945 149.136 48.6468C150.16 48.6411 151.171 48.4291 152.111 48.0234C153.05 47.6177 153.898 47.0267 154.603 46.286C155.308 45.5452 155.855 44.6699 156.213 43.7126C156.571 42.7553 156.731 41.7358 156.684 40.7152C156.684 37.8969 155.092 35.5885 153.5 33.0934L151.634 30.1639L155.775 23.7712L151.299 21.3635L148.887 25.0876L147.096 21.6866C150.826 14.5867 152.157 11.5698 152.157 8.03237C152.225 6.99098 152.075 5.94693 151.716 4.96661C151.358 3.98628 150.799 3.09112 150.075 2.33804C149.351 1.58496 148.479 0.990439 147.512 0.592267C146.546 0.194095 145.507 0.000987845 144.462 0.0252221C139.488 0.0252221 136.167 3.20371 136.167 7.91979C136.167 12.0042 138.729 17.6883 141.303 21.5741C139.843 23.6599 137.299 26.2411 133.556 26.2411C129.813 26.2411 128.309 23.4984 128.309 20.1212V0.843683H123.234V20.01C123.234 26.3153 127.014 31.3174 133.555 31.3174ZM148.613 34.929L149.277 35.9223C150.594 37.8585 151.614 39.4226 151.614 40.7139C151.668 41.0697 151.644 41.4331 151.544 41.7787C151.443 42.1244 151.269 42.4441 151.032 42.7157C150.795 42.9873 150.502 43.2043 150.173 43.3517C149.844 43.499 149.487 43.5733 149.127 43.5692C148.723 43.6248 148.313 43.5863 147.927 43.4569C147.541 43.3274 147.19 43.1105 146.902 42.8232C146.614 42.5358 146.397 42.1857 146.267 41.8005C146.138 41.4152 146.099 41.0052 146.155 40.6026C146.6 38.5704 147.436 36.6439 148.617 34.9303L148.613 34.929ZM141.251 7.91185C141.251 7.2298 141.251 5.09359 144.459 5.09359C145.429 5.09359 147.07 5.47898 147.07 8.04826C147.07 10.6175 145.529 14.1404 144.247 16.7375C142.206 12.8359 141.253 10.1421 141.253 7.91979L141.251 7.91185Z" fill="#D1D1D1"/>
<path d="M111.195 31.2565C115.274 31.2272 119.179 29.6052 122.074 26.7377L118.642 22.8401C117.693 23.8711 116.54 24.6938 115.255 25.2558C113.971 25.8179 112.583 26.1069 111.18 26.1046C106.194 26.0927 103.209 24.0691 103.209 20.7542V20.288C105.275 21.5798 107.671 22.248 110.108 22.2123C114.635 22.2123 117.881 19.308 117.881 15.5468C117.881 11.7856 114.727 8.93816 110.276 8.93816C107.975 8.92938 105.72 9.57531 103.774 10.8002C104.147 7.18867 107.144 5.23787 111.919 5.23787C113.948 5.36054 115.862 6.21646 117.303 7.64557L121.151 4.03402C118.613 1.62997 115.299 0.208491 111.805 0.0251465C103.648 0.0251465 98.6705 4.58098 98.6705 12.0663C98.665 13.3175 98.9057 14.5576 99.379 15.7163C98.5508 17.4352 98.1257 19.3197 98.1358 21.227C98.1265 27.4701 103.063 31.2565 111.195 31.2565ZM109.827 13.8781C111.693 13.8781 112.849 14.5985 112.849 15.5296C112.849 16.4606 111.606 17.3665 109.716 17.3665C108.914 17.3744 108.119 17.2237 107.376 16.9232C106.633 16.6227 105.958 16.1783 105.388 15.6156C106.583 14.4714 108.171 13.8274 109.827 13.8158V13.8781Z" fill="#D1D1D1"/>
<path d="M198.442 0.223633C190.397 0.223633 187.4 6.42963 187.4 10.3034C187.326 12.1583 187.783 13.9959 188.717 15.6009C187.366 16.313 186.242 17.3877 185.471 18.7038C184.699 20.0199 184.312 21.5249 184.352 23.0492C184.352 28.0142 187.946 31.4152 193.281 31.4152C198.616 31.4152 202.333 28.8327 205.007 23.5696V30.6828H209.981V11.196C209.982 4.30799 205.668 0.223633 198.442 0.223633ZM193.556 26.4276C190.919 26.4276 189.601 25.3099 189.601 23.0266C189.601 19.2164 194.649 18.4218 199.127 18.4218H201.788C198.965 26.4276 195.359 26.4276 193.556 26.4276ZM205.008 13.4567H199.127C197.302 13.447 195.479 13.5964 193.68 13.9031C193.192 13.4501 192.818 12.8871 192.591 12.261C192.364 11.635 192.29 10.9638 192.375 10.3034C192.375 8.88899 193.469 5.17678 198.443 5.17678C202.97 5.17678 205.01 7.01368 205.01 11.1364L205.008 13.4567Z" fill="#D1D1D1"/>
<path d="M193.194 34.7078C186.13 34.7078 180.473 39.6728 180.635 46.7489C180.655 48.9586 181.255 51.1243 182.375 53.0304C178.906 57.7717 178.644 65.257 178.644 65.257H183.917C183.946 62.3232 184.626 59.4321 185.907 56.7916C187.716 58.445 190.096 59.3349 192.547 59.2748C196.477 59.2748 199.314 56.6923 199.314 53.2172C199.314 49.407 195.583 47.3211 192.884 47.3211C190.61 47.2992 188.386 47.9944 186.531 49.3076C186.165 48.3894 185.959 47.4158 185.922 46.4284C185.922 42.5057 189.303 39.8066 193.383 39.8066C194.389 39.7935 195.387 39.986 196.315 40.3721C197.243 40.7582 198.083 41.3298 198.782 42.0518C199.481 42.7738 200.024 43.6308 200.379 44.5702C200.734 45.5097 200.892 46.5116 200.845 47.5144V65.2557H205.981V47.1953C205.94 40.1443 200.966 34.7078 193.194 34.7078ZM192.894 51.9365C194.013 51.9365 194.734 52.4583 194.734 53.2529C194.734 54.0476 193.875 54.7296 192.558 54.7296C191.211 54.6622 189.925 54.1497 188.901 53.2728C190.076 52.4526 191.462 51.9873 192.894 51.9325V51.9365Z" fill="#D1D1D1"/>
<path d="M178.309 15.1945C180.56 10.7516 181.675 5.82218 181.555 0.844971H176.507C176.532 4.47402 175.839 8.07234 174.468 11.4333C172.328 9.91311 169.77 9.08938 167.143 9.07461C165.213 9.1234 163.368 9.87738 161.958 11.1936V0.844971H156.908V30.6354H161.957V20.2086C163.46 21.6025 165.451 22.3516 167.502 22.2945C170.262 22.297 172.923 21.2701 174.964 19.4153C177.026 22.8101 178.086 26.7164 178.024 30.6857H183.097C183.227 25.1389 181.547 19.7003 178.309 15.1906V15.1945ZM167.502 17.242C166.185 17.242 165.09 16.5798 165.09 15.7852C165.09 14.9906 166.16 14.1469 167.578 14.1469C169.031 14.1911 170.429 14.7098 171.558 15.6236C170.454 16.6447 169.009 17.2196 167.504 17.2367L167.502 17.242Z" fill="#D1D1D1"/>
<path d="M70.347 46.0894L76.9808 40.0821V35.2283H52.8339V40.5787H69.6372L59.8193 49.4414C59.3236 49.3861 58.8254 49.3569 58.3267 49.354C53.6379 49.354 50.5798 52.1471 50.5798 56.454C50.5798 62.1633 55.8868 65.857 64.0967 65.857C73.5166 65.808 79.5905 61.8481 79.5905 55.715C79.5865 50.2228 76.0295 46.5742 70.347 46.0894ZM55.847 56.7652C55.8401 56.4318 55.9041 56.1008 56.0348 55.7939C56.1654 55.4871 56.3598 55.2114 56.605 54.985C56.8503 54.7586 57.1408 54.5867 57.4574 54.4806C57.7741 54.3744 58.1097 54.3366 58.4421 54.3694C61.5639 54.3694 63.6894 56.8526 64.1007 60.8363C59.0922 60.7489 55.847 59.161 55.847 56.7652ZM69.1145 60.3277C68.8412 55.6103 66.6268 52.0862 63.233 50.395H67.0806C71.4204 50.395 74.2304 52.3683 74.2304 55.4474C74.2304 57.781 72.3159 59.5185 69.1198 60.3251L69.1145 60.3277Z" fill="#D1D1D1"/>
<path d="M227.234 0.137695C220.17 0.137695 214.513 5.10276 214.675 12.1789C214.694 14.3846 215.294 16.5465 216.416 18.4471C212.946 23.2016 212.685 30.6856 212.685 30.6856H217.969C217.993 27.7492 218.668 24.8544 219.946 22.2097C221.755 23.863 224.135 24.753 226.587 24.6929C230.516 24.6929 233.353 22.1236 233.353 18.6352C233.353 14.825 229.622 12.7391 226.924 12.7391C224.628 12.6964 222.378 13.3787 220.494 14.6886C220.127 13.7708 219.921 12.7969 219.885 11.8094C219.885 7.88659 223.267 5.20606 227.347 5.20606C228.351 5.19305 229.346 5.38508 230.273 5.77035C231.2 6.15562 232.038 6.726 232.735 7.44642C233.433 8.16684 233.976 9.02209 234.33 9.95959C234.685 10.8971 234.843 11.8971 234.797 12.898C234.797 17.0433 234.797 30.6446 234.797 30.6446H239.995V12.5629C240 5.56232 235.026 0.137695 227.234 0.137695ZM226.936 17.4035C228.055 17.4035 228.776 17.9253 228.776 18.7199C228.776 19.5146 227.917 20.1966 226.6 20.1966C225.241 20.1026 223.954 19.556 222.943 18.6444C224.128 17.8595 225.513 17.4289 226.936 17.4035Z" fill="#D1D1D1"/>
<path d="M173.198 35.2283H160.179V40.0821H166.21C164.903 44.4785 163.282 48.776 161.361 52.9417C159.516 51.7195 157.357 51.0559 155.144 51.0307C154.116 51.0165 153.097 51.2072 152.144 51.5913C151.192 51.9755 150.326 52.5456 149.597 53.2681C148.868 53.9906 148.291 54.851 147.899 55.799C147.507 56.7469 147.309 57.7634 147.316 58.7888C147.25 59.7181 147.378 60.6509 147.692 61.5282C148.006 62.4056 148.499 63.2085 149.139 63.8862C149.779 64.5639 150.553 65.1018 151.412 65.4659C152.271 65.8299 153.197 66.0122 154.13 66.0013C162.922 66.0013 166.416 54.5442 171.03 40.5734H171.217V65.2306H176.191L176.08 35.2283H173.198ZM154.272 60.8482C153.975 60.872 153.677 60.8357 153.394 60.7416C153.112 60.6475 152.851 60.4975 152.628 60.3005C152.405 60.1035 152.224 59.8637 152.096 59.5953C151.969 59.3269 151.896 59.0355 151.884 58.7385C151.884 57.1996 153.662 56.0566 155.179 56.0566C156.648 56.0803 158.081 56.5099 159.32 57.2976C157.844 59.5331 155.95 60.8482 154.272 60.8482Z" fill="#D1D1D1"/>
<path d="M94.5801 60.7117C89.6061 60.7117 86.6342 58.6761 86.6342 55.3612V54.8898C88.7 56.1815 91.0958 56.8498 93.5333 56.8141C98.0602 56.8141 101.579 53.9097 101.579 50.1485C101.579 46.3873 98.234 43.5452 93.719 43.5452C91.4187 43.5364 89.1636 44.1823 87.2179 45.4073C87.5788 41.7957 90.5759 39.8449 95.2886 39.8449C97.3331 39.9478 99.2686 40.796 100.728 42.2288L104.576 38.604C102.048 36.2316 98.7633 34.8248 95.2992 34.6309C87.0548 34.656 82.0808 39.2119 82.0808 46.6959C82.0753 47.9471 82.316 49.1872 82.7892 50.3458C81.9611 52.0647 81.536 53.9493 81.5461 55.8565C81.5461 62.0625 86.5201 65.8608 94.6159 65.8608C98.6974 65.8338 102.605 64.2066 105.495 61.3302L102.063 57.4445C101.112 58.4786 99.9552 59.3034 98.6668 59.8659C97.3783 60.4285 95.9864 60.7166 94.5801 60.7117ZM93.2626 48.4348C95.128 48.4348 96.5583 49.142 96.5583 50.073C96.5583 51.0041 95.0657 51.9099 93.1512 51.9099C92.3505 51.9203 91.5558 51.7721 90.8129 51.4738C90.07 51.1756 89.3938 50.7332 88.8233 50.1723C90.0252 49.0453 91.6149 48.4223 93.2639 48.4321L93.2626 48.4348Z" fill="#D1D1D1"/>
<path d="M79.9965 15.156L77.1612 9.34736C79.2509 6.60458 81.6377 5.12659 83.9754 5.12659C87.9052 5.12659 90.0188 7.6707 90.0188 12.4504V30.6843H95.2674V12.947C95.2674 4.17039 91.3123 -0.384118 83.9767 0.025112C80.4544 0.263542 77.1592 1.84608 74.7744 4.44454L72.7922 0.843573H66.8033L71.2001 9.23478L68.3158 15.156C66.9629 17.776 66.211 20.6636 66.1147 23.6095C66.1147 28.5746 68.7509 31.3054 74.1349 31.3054C79.5189 31.3054 82.1803 28.5746 82.1803 23.6095C82.0825 20.6652 81.335 17.7788 79.9912 15.156H79.9965ZM74.1389 26.1483C73.7693 26.1476 73.4038 26.071 73.0651 25.9235C72.7264 25.776 72.4216 25.5605 72.1697 25.2906C71.9178 25.0206 71.7242 24.7019 71.6008 24.3542C71.4773 24.0065 71.4268 23.6372 71.4522 23.2691C71.4931 22.137 71.7418 21.0219 72.1859 19.9794L74.1389 15.2382L76.0919 19.9794C76.545 21.0195 76.798 22.1356 76.8375 23.2691C76.8593 23.6373 76.8058 24.0061 76.6803 24.353C76.5548 24.6999 76.3599 25.0177 76.1074 25.287C75.855 25.5564 75.5503 25.7716 75.2119 25.9197C74.8734 26.0678 74.5084 26.1455 74.1389 26.1483Z" fill="#D1D1D1"/>
<path d="M126.354 35.2283L122.188 43.9175L112.875 35.2283H107.739V65.2557H112.849V42.4156L119.814 48.7898L119.689 49.0547C118.229 52.0464 116.493 55.3362 116.493 58.4259C116.493 64.6319 121.964 65.8742 124.688 65.8742C127.076 65.8742 132.485 64.5578 132.485 58.1412C132.485 53.4609 128.544 50.0109 126.268 47.6151L129.464 40.8873L140.656 65.2411H147.196L132.845 35.2283H126.354ZM127.162 57.9942C127.191 58.3437 127.149 58.6955 127.039 59.0284C126.928 59.3613 126.752 59.6685 126.519 59.9317C126.287 60.1948 126.004 60.4084 125.687 60.5598C125.37 60.7111 125.026 60.7971 124.675 60.8125C124.325 60.8581 123.97 60.829 123.633 60.7273C123.295 60.6255 122.984 60.4533 122.718 60.2222C122.452 59.991 122.239 59.7062 122.092 59.3864C121.945 59.0667 121.867 58.7195 121.865 58.3677C121.993 56.7922 122.473 55.2654 123.27 53.8992L123.904 52.5338C125.869 54.3442 127.162 56.0447 127.162 57.9942Z" fill="#D1D1D1"/>
</g>
<defs>
<clipPath id="clip0">
<rect width="240" height="66" fill="white"/>
</clipPath>
</defs>
</svg>
