<svg width="512" height="512" viewBox="0 0 512 512" fill="none" xmlns="http://www.w3.org/2000/svg">
<rect width="512" height="512" fill="white"/>
<path d="M383.803 112.507C381.296 109.27 378.432 106.392 375.568 103.515C351.581 80.1361 317.211 68.2668 273.891 68.2668H148.942C121.017 68.2668 104.19 84.4522 102.4 112.507C102.4 113.945 102.4 115.744 102.4 117.542V435.494C102.4 437.292 102.4 438.731 102.4 440.529H128.535C128.535 439.091 128.177 437.292 128.177 435.494V117.542C128.177 115.744 128.177 114.305 128.535 112.507C129.609 100.278 135.337 95.6021 148.942 95.6021H273.891C302.174 95.6021 325.446 101.357 343.704 112.507C349.075 115.744 353.729 119.341 358.025 123.657C377 142.36 386.667 167.897 386.667 202.066C386.667 236.235 377.358 262.131 358.025 280.834C338.692 299.537 310.409 309.248 273.891 309.248H220.546V336.584H273.891C317.211 336.584 351.223 324.714 375.568 300.976C400.271 277.237 412.444 243.788 412.444 202.425C412.444 165.738 402.778 135.526 383.803 112.507Z" fill="url(#paint0_linear)"/>
<path d="M348.359 202.425C348.359 253.499 318.285 281.553 263.866 281.553H220.904V254.218H263.866C266.372 254.218 268.878 254.218 271.385 253.859C316.495 251.341 322.581 225.085 322.581 202.066C322.581 179.046 316.495 153.15 270.669 150.992C268.52 150.992 266.372 150.992 263.866 150.992H194.769V435.854C194.769 437.652 194.769 439.091 194.769 440.889H168.633C168.633 439.45 168.991 437.652 168.991 435.854V137.324C168.991 129.771 174.719 123.657 181.88 123.657H263.866C266.372 123.657 268.878 123.657 271.027 124.016C337.976 126.894 348.359 174.011 348.359 202.425Z" fill="url(#paint1_linear)"/>
<defs>
<linearGradient id="paint0_linear" x1="1510.67" y1="62.8717" x2="1510.67" y2="548.432" gradientUnits="userSpaceOnUse">
<stop stop-color="#587162"/>
<stop offset="1" stop-color="#61B893"/>
</linearGradient>
<linearGradient id="paint1_linear" x1="1510.67" y1="62.8717" x2="1510.67" y2="548.432" gradientUnits="userSpaceOnUse">
<stop stop-color="#587162"/>
<stop offset="1" stop-color="#61B893"/>
</linearGradient>
</defs>
</svg>
