<svg width="20" height="13" viewBox="0 0 20 13" fill="none" xmlns="http://www.w3.org/2000/svg">
            <path fill-rule="evenodd" clip-rule="evenodd" d="M20 6.42906C20 6.23963 19.9248 6.05797 19.7908 5.92402C19.6569 5.79007 19.4752 5.71482 19.2858 5.71482H2.43969L6.93512 1.22082C7.00153 1.15442 7.0542 1.07558 7.09014 0.988816C7.12608 0.902051 7.14458 0.809056 7.14458 0.715142C7.14458 0.621229 7.12608 0.528234 7.09014 0.441469C7.0542 0.354704 7.00153 0.275867 6.93512 0.20946C6.86871 0.143053 6.78988 0.0903763 6.70311 0.054437C6.61635 0.0184978 6.52335 0 6.42944 0C6.33552 0 6.24253 0.0184978 6.15576 0.054437C6.069 0.0903763 5.99016 0.143053 5.92376 0.20946L0.209835 5.92338C0.14332 5.98973 0.0905481 6.06855 0.0545412 6.15532C0.0185342 6.24209 0 6.33512 0 6.42906C0 6.52301 0.0185342 6.61603 0.0545412 6.70281C0.0905481 6.78958 0.14332 6.8684 0.209835 6.93475L5.92376 12.6487C5.99016 12.7151 6.069 12.7678 6.15576 12.8037C6.24253 12.8396 6.33552 12.8581 6.42944 12.8581C6.52335 12.8581 6.61635 12.8396 6.70311 12.8037C6.78988 12.7678 6.86871 12.7151 6.93512 12.6487C7.00153 12.5823 7.0542 12.5034 7.09014 12.4167C7.12608 12.3299 7.14458 12.2369 7.14458 12.143C7.14458 12.0491 7.12608 11.9561 7.09014 11.8693C7.0542 11.7825 7.00153 11.7037 6.93512 11.6373L2.43969 7.1433H19.2858C19.4752 7.1433 19.6569 7.06805 19.7908 6.93411C19.9248 6.80016 20 6.61849 20 6.42906Z" fill="currentColor"/>
            </svg>
