<svg width="20" height="13" viewBox="0 0 20 13" fill="none" xmlns="http://www.w3.org/2000/svg">
<path fill-rule="evenodd" clip-rule="evenodd" d="M0 6.42906C0 6.23963 0.0752487 6.05797 0.209196 5.92402C0.343142 5.79007 0.524811 5.71482 0.714239 5.71482H17.5603L13.0649 1.22082C12.9985 1.15442 12.9458 1.07558 12.9099 0.988816C12.8739 0.902051 12.8554 0.809056 12.8554 0.715142C12.8554 0.621229 12.8739 0.528234 12.9099 0.441469C12.9458 0.354704 12.9985 0.275867 13.0649 0.20946C13.1313 0.143053 13.2101 0.0903763 13.2969 0.054437C13.3837 0.0184978 13.4766 0 13.5706 0C13.6645 0 13.7575 0.0184978 13.8442 0.054437C13.931 0.0903763 14.0098 0.143053 14.0762 0.20946L19.7902 5.92338C19.8567 5.98973 19.9095 6.06855 19.9455 6.15532C19.9815 6.24209 20 6.33512 20 6.42906C20 6.52301 19.9815 6.61603 19.9455 6.70281C19.9095 6.78958 19.8567 6.8684 19.7902 6.93475L14.0762 12.6487C14.0098 12.7151 13.931 12.7678 13.8442 12.8037C13.7575 12.8396 13.6645 12.8581 13.5706 12.8581C13.4766 12.8581 13.3837 12.8396 13.2969 12.8037C13.2101 12.7678 13.1313 12.7151 13.0649 12.6487C12.9985 12.5823 12.9458 12.5034 12.9099 12.4167C12.8739 12.3299 12.8554 12.2369 12.8554 12.143C12.8554 12.0491 12.8739 11.9561 12.9099 11.8693C12.9458 11.7825 12.9985 11.7037 13.0649 11.6373L17.5603 7.1433H0.714239C0.524811 7.1433 0.343142 7.06805 0.209196 6.93411C0.0752487 6.80016 0 6.61849 0 6.42906Z" fill="currentColor"/>
</svg>
