<svg width="22" height="16" viewBox="0 0 22 16" fill="none" xmlns="http://www.w3.org/2000/svg">
<path d="M19.4824 0H2.16471C0.974118 0 0.0108235 0.9 0.0108235 2L0 14C0 15.1 0.974118 16 2.16471 16H19.4824C20.6729 16 21.6471 15.1 21.6471 14V2C21.6471 0.9 20.6729 0 19.4824 0ZM19.0494 4.25L11.3972 8.67C11.0508 8.87 10.5962 8.87 10.2499 8.67L2.59765 4.25C2.48912 4.19371 2.39408 4.11766 2.31828 4.02645C2.24248 3.93525 2.1875 3.83078 2.15667 3.71937C2.12584 3.60796 2.11979 3.49194 2.1389 3.37831C2.15801 3.26468 2.20187 3.15581 2.26783 3.0583C2.3338 2.96079 2.42049 2.87666 2.52267 2.811C2.62484 2.74533 2.74038 2.69951 2.86228 2.6763C2.98418 2.65309 3.10991 2.65297 3.23186 2.67595C3.35381 2.69893 3.46944 2.74453 3.57176 2.81L10.8235 7L18.0753 2.81C18.1776 2.74453 18.2933 2.69893 18.4152 2.67595C18.5372 2.65297 18.6629 2.65309 18.7848 2.6763C18.9067 2.69951 19.0222 2.74533 19.1244 2.811C19.2266 2.87666 19.3133 2.96079 19.3792 3.0583C19.4452 3.15581 19.4891 3.26468 19.5082 3.37831C19.5273 3.49194 19.5212 3.60796 19.4904 3.71937C19.4596 3.83078 19.4046 3.93525 19.3288 4.02645C19.253 4.11766 19.1579 4.19371 19.0494 4.25Z" fill="#A5C2E4"/>
</svg>
