
<svg width="36" height="22" viewBox="0 0 36 22" fill="none" xmlns="http://www.w3.org/2000/svg">
<path fill-rule="evenodd" clip-rule="evenodd" d="M34.7229 2.07098C34.9687 1.25729 34.7229 0.658203 33.5457 0.658203H29.6588C28.6697 0.658203 28.2136 1.17533 27.9663 1.7461C27.9663 1.7461 25.9896 6.50901 23.1895 9.60282C22.2833 10.5 21.8717 10.7846 21.3771 10.7846C21.1299 10.7846 20.7582 10.5 20.7582 9.68478V2.07098C20.7582 1.09336 20.4858 0.658203 19.6625 0.658203H13.5501C12.9326 0.658203 12.5609 1.11125 12.5609 1.54193C12.5609 2.46739 13.9617 2.68199 14.1053 5.28699V10.947C14.1053 12.1884 13.8788 12.4135 13.3842 12.4135C12.0664 12.4135 8.86063 7.62821 6.9579 2.15295C6.5892 1.0874 6.21606 0.658203 5.2225 0.658203H1.33265C0.222108 0.658203 0 1.17533 0 1.7461C0 2.76247 1.31784 7.81151 6.13758 14.4894C9.35074 19.0497 13.8743 21.522 17.9952 21.522C20.4665 21.522 20.7715 20.9736 20.7715 20.0273V16.5803C20.7715 15.4819 21.0055 15.2629 21.7888 15.2629C22.3663 15.2629 23.3539 15.549 25.6609 17.7472C28.2965 20.3536 28.7304 21.522 30.2141 21.522H34.101C35.2115 21.522 35.7683 20.9736 35.4484 19.8887C35.096 18.8097 33.8374 17.2434 32.1686 15.3851C31.2624 14.327 29.9031 13.1869 29.49 12.6162C28.914 11.8844 29.0784 11.5581 29.49 10.9068C29.49 10.9068 34.2283 4.31086 34.7214 2.07098H34.7229Z" fill="currentColor"/>
</svg>
