<svg width="61" height="31" viewBox="0 0 61 31" fill="none" xmlns="http://www.w3.org/2000/svg">
<path d="M33.1067 10.849C33.1067 11.5891 32.8127 12.2989 32.2894 12.8223C31.766 13.3456 31.0562 13.6396 30.3161 13.6396C29.576 13.6396 28.8662 13.3456 28.3428 12.8223C27.8195 12.2989 27.5255 11.5891 27.5255 10.849C27.5255 10.1089 27.8195 9.39906 28.3428 8.87571C28.8662 8.35236 29.576 8.05835 30.3161 8.05835C31.0562 8.05835 31.766 8.35236 32.2894 8.87571C32.8127 9.39906 33.1067 10.1089 33.1067 10.849Z" fill="white"/>
<path d="M7.99091 13.6395C7.99091 13.1461 8.18692 12.6729 8.53581 12.324C8.88471 11.9751 9.35792 11.7791 9.85134 11.7791H15.4326C15.9261 11.7791 16.3993 11.9751 16.7482 12.324C17.0971 12.6729 17.2931 13.1461 17.2931 13.6395C17.2931 14.1329 17.0971 14.6061 16.7482 14.955C16.3993 15.3039 15.9261 15.4999 15.4326 15.4999H9.85134C9.35792 15.4999 8.88471 15.3039 8.53581 14.955C8.18692 14.6061 7.99091 14.1329 7.99091 13.6395Z" fill="white"/>
<path d="M45.2053 11.7791C44.7119 11.7786 44.2385 11.9741 43.8893 12.3226C43.54 12.6712 43.3435 13.1442 43.343 13.6376C43.3426 14.131 43.5381 14.6044 43.8866 14.9537C44.2352 15.3029 44.7082 15.4994 45.2016 15.4999L50.7829 15.5111C51.2763 15.5121 51.7499 15.317 52.0995 14.9688C52.4491 14.6206 52.6461 14.1478 52.6471 13.6544C52.6481 13.161 52.453 12.6874 52.1048 12.3378C51.7566 11.9882 51.2838 11.7912 50.7904 11.7902L45.2053 11.7791Z" fill="white"/>
<path d="M30.3158 0.616455C21.6276 0.616455 12.9394 1.71783 4.2437 3.91314C3.184 4.18476 2.24519 4.80214 1.57595 5.66751C0.906701 6.53288 0.545269 7.59678 0.548886 8.69073V18.1789C0.548886 24.8877 5.91437 30.3834 12.5933 30.3834H20.0462C21.1739 30.3819 22.288 30.1375 23.3127 29.6669C24.3375 29.1963 25.2488 28.5104 25.9847 27.656L27.9531 25.3825C28.2444 25.0404 28.6065 24.7656 29.0145 24.5772C29.4224 24.3887 29.8664 24.2911 30.3158 24.2911C30.7652 24.2911 31.2092 24.3887 31.6171 24.5772C32.0251 24.7656 32.3872 25.0404 32.6786 25.3825L34.6506 27.656C35.3861 28.5099 36.2969 29.1955 37.3209 29.6661C38.345 30.1368 39.4584 30.3814 40.5854 30.3834H48.0383C54.7172 30.3834 60.0827 24.8914 60.0827 18.1789V8.69073C60.0827 6.45077 58.5795 4.46755 56.3879 3.91314C47.8674 1.73786 39.1096 0.630467 30.3158 0.616455ZM5.15532 7.52238C13.5608 5.39777 21.9439 4.33732 30.3158 4.33732C38.6878 4.33732 47.0709 5.39777 55.4763 7.52238C55.9786 7.64889 56.3619 8.11772 56.3619 8.69073V18.1789C56.3619 22.8933 52.6075 26.6625 48.042 26.6625H40.5854C39.3947 26.6625 38.2561 26.1416 37.4599 25.2225L35.4878 22.9454C34.8472 22.1992 34.0528 21.6003 33.1592 21.1897C32.2655 20.7791 31.2937 20.5666 30.3102 20.5666C29.3268 20.5666 28.3549 20.7791 27.4613 21.1897C26.5676 21.6003 25.7733 22.1992 25.1326 22.9454L23.168 25.2225C22.7812 25.6732 22.3018 26.035 21.7624 26.2836C21.223 26.5321 20.6364 26.6613 20.0425 26.6625H12.5933C8.0241 26.6625 4.26975 22.8896 4.26975 18.1789V8.69073C4.26975 8.11772 4.653 7.64889 5.15532 7.52238Z" fill="white"/>
</svg>
