<svg width="184" height="21" viewBox="0 0 184 21" fill="none" xmlns="http://www.w3.org/2000/svg">
<path d="M9.639 20.216C8.721 20.216 8.064 19.766 7.668 18.866L0.621 3.044C0.333 2.36 0.342 1.811 0.648 1.397C0.972 0.964999 1.44 0.748998 2.052 0.748998C2.574 0.748998 2.961 0.865999 3.213 1.1C3.483 1.316 3.708 1.649 3.888 2.099L9.693 15.572L15.498 2.072C15.696 1.64 15.93 1.316 16.2 1.1C16.47 0.865999 16.848 0.748998 17.334 0.748998C17.91 0.748998 18.342 0.964999 18.63 1.397C18.936 1.829 18.936 2.378 18.63 3.044L11.583 18.866C11.385 19.316 11.133 19.658 10.827 19.892C10.539 20.108 10.143 20.216 9.639 20.216ZM24.405 20.216C23.253 20.216 22.677 19.622 22.677 18.434V2.72C22.677 1.55 23.262 0.964999 24.432 0.964999H30.939C33.027 0.964999 34.638 1.469 35.772 2.477C36.906 3.467 37.473 4.862 37.473 6.662C37.473 8.084 37.104 9.263 36.366 10.199C35.628 11.117 34.566 11.738 33.18 12.062C34.098 12.35 34.854 13.043 35.448 14.141L37.473 17.894C37.779 18.47 37.833 19.001 37.635 19.487C37.455 19.973 36.996 20.216 36.258 20.216C35.772 20.216 35.376 20.117 35.07 19.919C34.764 19.703 34.494 19.379 34.26 18.947L31.533 13.925C31.209 13.313 30.822 12.908 30.372 12.71C29.94 12.494 29.382 12.386 28.698 12.386H26.133V18.434C26.133 19.622 25.557 20.216 24.405 20.216ZM26.133 9.821H30.345C32.865 9.821 34.125 8.795 34.125 6.743C34.125 4.709 32.865 3.692 30.345 3.692H26.133V9.821Z" fill="currentColor"/>
<path d="M60.6878 3.48767C60.5659 3.32543 60.4266 3.18121 60.2873 3.037C59.1205 1.86528 57.4487 1.2704 55.3416 1.2704H49.2639C47.9056 1.2704 47.0871 2.08159 47 3.48767C47 3.55977 47 3.6499 47 3.74004V19.6755C47 19.7657 47 19.8378 47 19.9279H48.2713C48.2713 19.8558 48.2538 19.7657 48.2538 19.6755V3.74004C48.2538 3.6499 48.2538 3.5778 48.2713 3.48767C48.3235 2.87476 48.6021 2.64042 49.2639 2.64042H55.3416C56.7173 2.64042 57.8492 2.92884 58.7374 3.48767C58.9986 3.64991 59.225 3.83017 59.434 4.04649C60.3569 4.98387 60.8271 6.26376 60.8271 7.97628C60.8271 9.6888 60.3743 10.9867 59.434 11.9241C58.4936 12.8615 57.1178 13.3482 55.3416 13.3482H52.7468V14.7182H55.3416C57.4487 14.7182 59.1031 14.1233 60.2873 12.9336C61.4889 11.7438 62.081 10.0674 62.081 7.99431C62.081 6.1556 61.6108 4.64137 60.6878 3.48767Z" fill="currentColor"/>
<path d="M58.9638 7.99431C58.9638 10.5541 57.501 11.9602 54.8539 11.9602H52.7642V10.5901H54.8539C54.9758 10.5901 55.0978 10.5901 55.2197 10.5721C57.4139 10.4459 57.7099 9.12998 57.7099 7.97628C57.7099 6.82258 57.4139 5.52467 55.1848 5.41651C55.0803 5.41651 54.9758 5.41651 54.8539 5.41651H51.4929V19.6935C51.4929 19.7837 51.4929 19.8558 51.4929 19.9459H50.2217C50.2217 19.8738 50.2391 19.7837 50.2391 19.6935V4.7315C50.2391 4.35294 50.5177 4.04649 50.866 4.04649H54.8539C54.9758 4.04649 55.0978 4.04649 55.2022 4.06452C58.4588 4.20873 58.9638 6.57021 58.9638 7.99431Z" fill="currentColor"/>
<path d="M67.0267 3.36148C67.1486 3.19924 67.2879 3.05503 67.4272 2.91082C68.594 1.73909 70.2658 1.14421 72.373 1.14421H78.4506C79.809 1.14421 80.6274 1.95541 80.7145 3.36148C80.7145 3.43359 80.7145 3.52372 80.7145 3.61385V19.5493C80.7145 19.6395 80.7145 19.7116 80.7145 19.8017H79.4432C79.4432 19.7296 79.4607 19.6395 79.4607 19.5493V3.59583C79.4607 3.50569 79.4607 3.43359 79.4432 3.34345C79.391 2.73055 79.1124 2.4962 78.4506 2.4962H72.373C70.9972 2.4962 69.8653 2.78463 68.9771 3.34345C68.7159 3.50569 68.4895 3.68596 68.2805 3.90228C67.3576 4.83966 66.8874 6.11954 66.8874 7.83207C66.8874 9.54459 67.3402 10.8425 68.2805 11.7799C69.2209 12.7173 70.5967 13.204 72.373 13.204H74.9677V14.574H72.373C70.2658 14.574 68.6114 13.9791 67.4272 12.7894C66.243 11.5996 65.6335 9.92315 65.6335 7.83207C65.6335 6.01138 66.1037 4.49715 67.0267 3.36148Z" fill="currentColor"/>
<path d="M68.7681 7.85009C68.7681 10.4099 70.231 11.8159 72.878 11.8159H74.9677V10.4459H72.878C72.7561 10.4459 72.6342 10.4459 72.5123 10.4279C70.318 10.3017 70.022 8.98577 70.022 7.83207C70.022 6.67837 70.318 5.38046 72.5471 5.2723C72.6516 5.2723 72.7561 5.2723 72.878 5.2723H76.239V19.5493C76.239 19.6395 76.239 19.7116 76.239 19.8017H77.5102C77.5102 19.7296 77.4928 19.6395 77.4928 19.5493V4.58729C77.4928 4.20873 77.2142 3.90228 76.8659 3.90228H72.878C72.7561 3.90228 72.6342 3.90228 72.5297 3.9203C69.2732 4.08254 68.7681 6.426 68.7681 7.85009Z" fill="currentColor"/>
<path d="M72.373 15.6736L70.3006 19.8017H68.8726L70.9624 15.6556C71.1888 15.6736 71.4326 15.6736 71.6764 15.6736H72.373Z" fill="currentColor"/>
<path d="M68.9945 15.277C68.9249 15.4032 68.8726 15.5114 68.8726 15.5114L67.0789 19.0806C66.9396 19.351 66.8874 19.5854 66.8874 19.8017H65.6161C65.5987 19.3691 65.7206 18.9184 65.947 18.4317L67.8278 14.7362C68.1761 14.9526 68.5766 15.1328 68.9945 15.277Z" fill="currentColor"/>
<path d="M95.8826 11.9421C95.8651 11.9241 95.8651 11.9241 95.8477 11.9061C95.3079 12.1404 94.8203 12.3207 94.4197 12.4469C95.2905 12.7894 95.4298 13.4203 95.4298 13.9972C95.4298 14.7002 95.2034 15.1689 94.6984 15.4934C94.1411 15.8539 93.2181 16.0522 91.9643 16.0522C90.3099 16.0522 88.8471 15.7097 87.6455 15.0427C87.6281 15.0427 87.6107 15.0247 87.5932 15.0247L87.0708 16.1423C88.464 16.8994 90.1009 17.278 91.9469 17.278C93.4793 17.278 94.6113 17.0256 95.3949 16.5028C96.2308 15.962 96.6662 15.0787 96.6662 13.9972C96.6836 13.3843 96.5269 12.5731 95.8826 11.9421ZM95.1163 4.44307C94.4197 3.90228 93.3923 3.63188 91.9817 3.63188C91.2155 3.63188 90.4318 3.72201 89.6482 3.90228C88.8645 4.08254 88.1331 4.35294 87.4713 4.71347C87.332 4.78558 87.1405 4.87571 86.9663 4.87571L87.4888 6.01138C87.6803 5.95731 87.8719 5.86717 88.0808 5.75901C88.6381 5.47059 89.265 5.23624 89.9268 5.074C90.606 4.91176 91.2851 4.83966 91.9643 4.83966C93.0614 4.83966 93.8451 5.01992 94.3152 5.38046C94.7506 5.72296 94.9422 6.13757 94.9422 6.71442C94.9422 7.52562 94.6461 8.48102 92.2603 8.48102H89.5263C89.5088 8.48102 89.4914 8.48102 89.4566 8.48102V9.70683C89.474 9.70683 89.4914 9.70683 89.5263 9.70683H92.2603C95.691 9.70683 96.196 7.83207 96.196 6.73245C96.2308 5.77704 95.8477 5.01992 95.1163 4.44307ZM98.7559 8.78748C98.7037 8.87761 98.6515 8.94971 98.5992 9.03985C98.7037 8.89564 98.8082 8.75142 98.8778 8.58918C98.843 8.66129 98.7908 8.7334 98.7559 8.78748ZM98.8778 11.2571C98.6689 10.9867 98.4251 10.7524 98.1464 10.5361C97.7981 10.8065 97.4324 11.0588 97.0667 11.2751C97.3802 11.4734 97.6588 11.7258 97.8852 11.9962C98.3554 12.5911 98.5992 13.3121 98.5992 14.2495C98.5992 15.6015 98.1116 16.6471 97.1016 17.4583C96.91 17.6025 96.701 17.7467 96.4746 17.8729C95.4646 18.4317 94.0192 18.7021 92.2081 18.7021C91.0413 18.7021 89.9442 18.5759 88.9516 18.3235C88.464 18.1973 88.0286 18.0531 87.5932 17.8729C87.2101 17.7106 86.8444 17.5304 86.5135 17.3321L85.9911 18.4677C86.7573 18.9184 87.6455 19.2609 88.6033 19.5133C89.7004 19.8017 90.902 19.9279 92.1907 19.9279C94.7158 19.9279 96.6314 19.4231 97.8852 18.4137C98.0942 18.2514 98.2858 18.0712 98.4599 17.8909C99.3655 16.9355 99.8356 15.7097 99.8356 14.2676C99.8531 13.0598 99.5222 12.0683 98.8778 11.2571Z" fill="currentColor"/>
<path d="M99.4351 6.31784C99.4351 7.16509 99.2436 7.9222 98.8778 8.58918C98.843 8.66129 98.7908 8.71537 98.7559 8.78748C98.7037 8.87761 98.6515 8.94971 98.5992 9.03985C98.5992 9.05787 98.5818 9.05787 98.5818 9.0759C96.8055 11.6176 93.7406 12.0863 92.9221 12.1765C92.9047 12.1765 92.8873 12.1765 92.8698 12.1765C92.8524 12.1765 92.835 12.1765 92.8176 12.1765C92.7654 12.1765 92.7305 12.1765 92.7305 12.1765H89.5785C89.5611 12.1765 89.5437 12.1765 89.5088 12.1765V10.9507C89.5263 10.9507 89.5437 10.9507 89.5785 10.9507H92.7305C92.7305 10.9507 92.7305 10.9507 92.7479 10.9507C92.8698 10.9507 94.1585 10.9326 95.4472 10.3017C96.2308 9.92315 97.0145 9.31025 97.5543 8.35484C97.9723 7.79601 98.1813 7.12903 98.1813 6.31784C98.1813 5.09203 97.7285 4.13662 96.7881 3.37951C96.7184 3.32543 96.6488 3.27135 96.5617 3.21727C95.6039 2.55028 94.1933 2.22581 92.33 2.22581C91.3374 2.22581 90.3621 2.33397 89.4044 2.56831C88.7252 2.73055 88.0808 2.94687 87.4888 3.23529C87.2798 3.34345 87.0708 3.45161 86.8618 3.55977C86.7051 3.66793 86.5832 3.77609 86.5135 3.90228L85.9563 2.6945C86.0434 2.64042 86.113 2.56831 86.2001 2.51423C87.0708 2.00949 88.046 1.6129 89.1083 1.37856C90.1532 1.12619 91.2329 1 92.33 1C94.6287 1 96.3876 1.48672 97.5718 2.44213C97.8678 2.67647 98.129 2.94687 98.3554 3.21727C99.0694 4.08254 99.4351 5.12808 99.4351 6.31784Z" fill="currentColor"/>
<path d="M112.914 12.6091H110.041L109.501 13.9972H113.454L112.914 12.6091Z" fill="currentColor"/>
<path d="M120.629 18.8283L114.168 1.2704H112.775L119.462 19.4592C119.531 19.6395 119.566 19.7837 119.601 19.9099H120.872C120.855 19.5854 120.768 19.2249 120.629 18.8283Z" fill="currentColor"/>
<path d="M108.856 1.2704L102.43 18.8102C102.274 19.2249 102.204 19.5854 102.169 19.9279H103.44C103.458 19.8017 103.51 19.6575 103.58 19.4772L110.232 1.28843H108.856V1.2704Z" fill="currentColor"/>
<path d="M114.028 15.3311H108.996L108.334 16.611H114.708L114.028 15.3311Z" fill="currentColor"/>
<path d="M117.773 19.9279H116.397L115.509 17.3861L115.265 16.6831L114.899 15.6195L113.611 11.9602L113.419 11.3833L111.503 5.77704L109.379 11.9602L109.222 12.4469L108.856 13.5104L108.682 13.9972L108.125 15.6195L107.933 16.1423L107.585 17.1698L107.411 17.6926L106.645 19.9279H105.269C105.304 19.8558 105.339 19.7657 105.373 19.6755L106.54 16.2865L106.61 16.0702L110.911 3.55977C111.016 3.27135 111.242 3.09108 111.486 3.09108H111.538C111.799 3.09108 112.026 3.27135 112.113 3.55977L116.658 16.7192L117.703 19.6935C117.72 19.7657 117.738 19.8558 117.773 19.9279Z" fill="currentColor"/>
<path d="M136.737 11.2571H130.433V12.6091H136.737V11.2571Z" fill="currentColor"/>
<path d="M141.996 1.2704H140.725V19.7116C140.725 19.8017 140.725 19.9099 140.708 20H141.979C141.979 19.9099 141.979 19.8197 141.979 19.7116V1.3425C142.014 1.32448 142.014 1.30645 141.996 1.2704Z" fill="currentColor"/>
<path d="M129.58 11.2571V12.0863V9.47249V11.2571Z" fill="currentColor"/>
<path d="M136.737 8.12049H130.433V9.49051H136.737V8.12049Z" fill="currentColor"/>
<path d="M126.341 19.7116V1.2704H125.069C125.069 1.28843 125.069 1.30645 125.069 1.3425V19.7116C125.069 19.8017 125.069 19.9099 125.069 20H126.341C126.341 19.9099 126.341 19.8017 126.341 19.7116Z" fill="currentColor"/>
<path d="M138.775 19.982H137.503C137.503 19.8918 137.503 19.8017 137.503 19.6935V1.3425C137.503 1.32448 137.503 1.30645 137.503 1.2704H138.775V19.7116C138.775 19.8017 138.775 19.9099 138.775 19.982Z" fill="currentColor"/>
<path d="M129.58 1.3425V19.7116C129.58 19.8017 129.58 19.9099 129.58 20H128.308C128.308 19.9099 128.326 19.8197 128.326 19.7116V1.2704H129.597C129.58 1.30645 129.58 1.32448 129.58 1.3425Z" fill="currentColor"/>
<path d="M157.774 14.8083C157.408 13.8349 156.973 13.0778 156.468 12.537C156.015 12.9156 155.58 13.186 155.231 13.3662C155.283 13.4023 155.336 13.4383 155.388 13.4924C155.841 13.871 156.259 14.538 156.607 15.4753L158.296 19.9459H159.689L157.774 14.8083ZM157.774 14.8083C157.408 13.8349 156.973 13.0778 156.468 12.537C156.015 12.9156 155.58 13.186 155.231 13.3662C155.283 13.4023 155.336 13.4383 155.388 13.4924C155.841 13.871 156.259 14.538 156.607 15.4753L158.296 19.9459H159.689L157.774 14.8083ZM157.774 14.8083C157.408 13.8349 156.973 13.0778 156.468 12.537C156.015 12.9156 155.58 13.186 155.231 13.3662C155.283 13.4023 155.336 13.4383 155.388 13.4924C155.841 13.871 156.259 14.538 156.607 15.4753L158.296 19.9459H159.689L157.774 14.8083ZM148.736 19.6575V1.2704H147.482V19.6395C147.482 19.7296 147.482 19.8197 147.482 19.9099H148.753C148.736 19.8378 148.736 19.7476 148.736 19.6575ZM156.973 1.2704L153.507 8.04839H151.957V1.2704H150.703V8.82353C150.703 9.25617 150.982 9.59867 151.33 9.59867H153.855C154.064 9.59867 154.273 9.45446 154.395 9.23814L158.47 1.2704H156.973ZM162.65 18.5218L160.577 13.2941C160.142 12.2125 159.655 11.2932 159.097 10.5721C158.923 10.3558 158.749 10.1395 158.575 9.9592C158.331 10.4099 158.052 10.8245 157.791 11.167C157.93 11.3112 158.052 11.4734 158.192 11.6357C158.662 12.2486 159.08 13.0417 159.463 13.9791L161.535 19.2068C161.657 19.4772 161.709 19.7116 161.709 19.9099H162.981C162.946 19.4953 162.841 19.0266 162.65 18.5218ZM157.774 14.8083C157.408 13.8349 156.973 13.0778 156.468 12.537C156.015 12.9156 155.58 13.186 155.231 13.3662C155.283 13.4023 155.336 13.4383 155.388 13.4924C155.841 13.871 156.259 14.538 156.607 15.4753L158.296 19.9459H159.689L157.774 14.8083Z" fill="currentColor"/>
<path d="M161.727 1.2704C161.692 1.68501 161.553 2.13567 161.309 2.56831L157.756 9.23814C157.513 9.70683 157.234 10.1214 156.973 10.482C156.537 11.0768 156.067 11.5275 155.632 11.87C154.552 12.7353 153.646 12.9336 153.646 12.9336H151.957V19.6575C151.957 19.7476 151.957 19.8378 151.957 19.9279H150.686C150.686 19.8378 150.703 19.7476 150.703 19.6575V12.1584C150.703 11.7258 150.982 11.3833 151.33 11.3833H153.646C153.646 11.3833 153.647 11.3833 153.664 11.3833C153.838 11.3653 155.196 11.2211 156.328 9.12998L160.264 1.72106C160.351 1.55882 160.403 1.41461 160.438 1.2704H161.727Z" fill="currentColor"/>
<path d="M89.4044 12.1945V12.1765H89.5785L89.4044 12.1945Z" fill="currentColor"/>
<path d="M176.024 12.6091H173.133L172.593 13.9972H176.564L176.024 12.6091Z" fill="currentColor"/>
<path d="M183.739 18.8283L177.278 1.2704H175.885L182.589 19.4772C182.659 19.6575 182.694 19.8017 182.729 19.9279H184C183.965 19.5854 183.878 19.2249 183.739 18.8283Z" fill="currentColor"/>
<path d="M171.949 1.2704L165.523 18.8283C165.366 19.2429 165.297 19.6034 165.262 19.9459H166.533C166.551 19.8197 166.603 19.6755 166.673 19.4953L173.325 1.30645H171.949V1.2704Z" fill="currentColor"/>
<path d="M177.139 15.3311H172.106L171.427 16.611H177.8L177.139 15.3311Z" fill="currentColor"/>
<path d="M180.883 19.9279H179.507L178.619 17.3861L178.375 16.6831L178.009 15.6195L176.721 11.9602L176.529 11.3833L174.614 5.77704L172.489 11.9602L172.332 12.4469L171.967 13.5104L171.792 13.9972L171.235 15.6195L171.044 16.1423L170.695 17.1698L170.521 17.6926L169.755 19.9279H168.379C168.414 19.8558 168.449 19.7657 168.484 19.6755L169.65 16.2865L169.72 16.0702L174.021 3.55977C174.126 3.27135 174.352 3.09108 174.596 3.09108H174.648C174.91 3.09108 175.136 3.27135 175.223 3.55977L179.768 16.7192L180.813 19.6935C180.813 19.7657 180.848 19.8558 180.883 19.9279Z" fill="currentColor"/>
</svg>
