<svg width="33" height="23" viewBox="0 0 33 23" fill="none" xmlns="http://www.w3.org/2000/svg">
<path d="M32.2367 3.88471C32.0503 3.21974 31.6871 2.6177 31.1859 2.14261C30.6705 1.6529 30.0389 1.3026 29.3505 1.12478C26.7744 0.445767 16.4535 0.445767 16.4535 0.445767C12.1508 0.396813 7.84914 0.612124 3.57285 1.09048C2.8845 1.28145 2.25401 1.63957 1.73747 2.133C1.22992 2.62134 0.862297 3.22353 0.670254 3.88334C0.208929 6.36858 -0.0152137 8.89202 0.000846613 11.4197C-0.0156142 13.945 0.207979 16.4677 0.670254 18.956C0.858182 19.613 1.22444 20.2125 1.73335 20.6967C2.24226 21.1809 2.87601 21.5307 3.57285 21.7159C6.18326 22.3936 16.4535 22.3936 16.4535 22.3936C20.7616 22.4426 25.0687 22.2273 29.3505 21.7488C30.0389 21.571 30.6705 21.2207 31.1859 20.731C31.6935 20.2468 32.0542 19.6446 32.2353 18.9889C32.7087 16.5046 32.9388 13.9801 32.9225 11.4512C32.9581 8.91158 32.7283 6.37519 32.2367 3.88334V3.88471ZM13.1723 16.1165V6.72421L21.7593 11.421L13.1723 16.1165Z" fill="#597263"/>
</svg>
